<?xml version="1.0" standalone="no"?>
<!DOCTYPE svg PUBLIC "-//W3C//DTD SVG 1.1//EN" "http://www.w3.org/Graphics/SVG/1.1/DTD/svg11.dtd" >
<svg xmlns="http://www.w3.org/2000/svg" xmlns:xlink="http://www.w3.org/1999/xlink" version="1.1">
<metadata></metadata>
<defs>
<font id="jejuhallasanregular" horiz-adv-x="2048" >
<font-face units-per-em="2048" ascent="1638" descent="-410" />
<missing-glyph horiz-adv-x="573" />
<glyph horiz-adv-x="0" />
<glyph horiz-adv-x="682" />
<glyph unicode=" "  horiz-adv-x="573" />
<glyph unicode="&#x09;" horiz-adv-x="573" />
<glyph unicode="&#xa0;" horiz-adv-x="573" />
<glyph unicode="!" horiz-adv-x="907" d="M250 84q14 43 18 111q0 16 1 28.5t1 20.5q0 10 2 16q8 2 39 6t39 13q0 -4 12 6l13 8q4 0 17.5 -2t41.5 -6q29 -4 42 -7.5t16 -3.5q12 0 17 1t8 1h6.5t15.5 -2q-8 -6 2 -12t2 -6l-4 -127l-19 -72q-8 -4 -14 -6q-8 -4 -17.5 -8t-21.5 -8q-51 -27 -59 -27l-76 35 q-76 35 -82 41zM279 934q8 33 10 45t-2 2q-10 -23 14 57q-4 98 2 188.5t21 176.5q6 41 11 78t7 71l49 19l246 -25l39 -53l8 -125q-33 -29 -45 -59.5t-14 -46.5t-8.5 -50t-20.5 -51l-4 -18q20 -43 29.5 -49.5t11.5 -10.5q4 4 -2 -7t-23 -40q-31 -55 -10 -49q10 -6 -45 -217 q-14 -51 -22.5 -82t-13.5 -49t-7 -26.5t-2 -14.5q-37 -14 -63.5 -25.5t-26.5 -23.5q0 -6 14 -14.5t31 -16.5q10 -4 21.5 -9t23.5 -9l-37 -45l-178 2v23t-4 26q-10 51 0 209q8 147 -10 219z" />
<glyph unicode="&#x22;" horiz-adv-x="913" d="M139 1530q29 16 29 45l37 18q6 -2 23.5 -4t37 -4t39 -5t29.5 -7q51 -25 94 -19l25 -51q-4 -14 -6.5 -28.5t-6.5 -30.5t-6 -27.5t-4 -21.5q-2 -6 -2 -19l-37 -26v-111l-39 -119h-88q-27 0 -37 2q-57 6 -57 17q0 6 -1 25.5t7 33.5q2 6 -1 16.5t-7 21.5t-7 21.5t1 16.5v45 q-14 2 -15 92q2 47 -1 74.5t-7 44.5zM504 1536q29 16 28 45l35 18q8 -2 25.5 -4t37 -4t38 -5t28.5 -7q55 -25 95 -18l26 -52q-4 -14 -6 -28.5t-6 -30.5t-6 -27.5t-4 -21.5q-2 -6 -2 -19l-37 -26v-111l-39 -119h-88q-27 0 -37 2q-57 6 -57 17q0 6 -1.5 25.5t7.5 33.5 q4 12 -8.5 38t-8.5 38q2 6 1 23.5t1 21.5q-14 2 -14 92q2 47 -1 75t-7 44z" />
<glyph unicode="#" horiz-adv-x="1363" d="M49 580q6 8 8 16q6 8 16.5 21.5t22.5 35.5l23 -6q0 -12 74 4q37 8 71.5 11.5t67.5 5.5q2 10 8 18t12 14q12 29 22.5 100.5t20.5 153.5q-35 -2 -66.5 -2t-54.5 -4q-2 0 -14 -12l-10 -10q-16 4 -15 7t-6 5q-6 2 -25.5 4t-45.5 4l-11 29q10 14 18.5 25.5t12.5 23.5q2 4 5 12 t12 19l67 30q27 -6 66 -5t80 3q6 37 9 56.5t5 29t2 13.5v8q23 16 37 27.5t18 23.5q6 27 -1 40t-17 17.5t-20.5 5.5t-10.5 3q0 20 6 47.5t6 31.5l60 41q18 -4 30.5 -4h16.5q6 0 8 -5t5 -11t10.5 -11t23.5 -5q8 0 13 7t16 7q4 0 23.5 -1t53.5 -3h15l47 -68q-6 -14 -16.5 -28.5 t-20.5 -32.5q-66 -100 -82 -209q23 -2 53.5 -2t77.5 -2h146q8 78 12 139.5t4 73.5q0 2 1 24.5t1 30.5q0 20 3 35.5t5 23.5l56 44q45 -6 59 -7q8 -2 0 -20q-12 -16 18 -12q8 0 26.5 -2.5t27.5 -2.5q8 0 21 -6t24 -14q0 -8 -2 -37t-5.5 -69.5t-7.5 -91t-8 -103.5q35 4 79 6 t93 2q27 2 46.5 2h35.5l29 -49q0 -8 1 -15t1 -14q25 -4 23.5 -23.5t-7.5 -33.5l-20 12q6 4 -115 -6q-59 -4 -100 -7t-66 -3q-6 -82 -15 -132t-9 -52q0 -6 -11.5 -35t-21.5 -45q-4 -4 12 -19q123 6 170 6l14 -55q-4 -16 -6 -22q12 -8 10 -29l-53 -31q-10 0 -20 1t-25 3 q-39 6 -74.5 12.5t-68.5 12.5q8 -31 2 -64.5t-6 -44.5q0 -6 1 -8t3 -7t5 -16.5t7 -35.5q4 -23 -22 -78q-23 -53 -23 -66q-2 -6 -5 -19t-3 -28q-31 6 -40 11.5t-24 7.5l-104 -29l-43 29q2 33 18 82q14 94 19 135q4 6 1 22.5t-7 26.5l2 66q-16 -2 -34 -5.5t-38 5.5h-25.5 t-56.5 2q-35 4 -55.5 4h-24.5q-4 12 -2 18l4 12q-10 2 -30.5 -10t-30.5 -12h4q4 -23 -2 -58.5t-6 -50.5q0 -6 1 -8t3 -7t4 -16.5t6 -33.5q4 -16 -18 -78q-25 -59 -25 -66q0 -6 -5 -19t-5 -28q-29 6 -47.5 11.5t-34.5 7.5l-39 -15l-84 25q2 16 4 32.5t6 37.5q12 47 17.5 80.5 t7.5 54.5q0 6 -2 23.5t-6 27.5l4 51q-18 0 -44 -1t-50.5 -2t-45 -2t-30.5 -1h-17q-10 0 -16 2q-6 4 -4 5t-8 3q-4 0 -14.5 2t-26.5 4zM569 655q10 -2 39 -4t78 -4q96 -6 158 0v4q8 2 11 9.5t3 15.5t1 15t7 11q10 35 18.5 103.5t22.5 148.5q-23 -4 -46 -10t-54 2 q-4 2 -15.5 4t-15.5 4h-18.5t-38.5 2q-25 2 -45.5 2h-34.5q-4 -86 -11 -146t-10 -64q0 -6 -8 -33t-20 -43q-2 -2 -4 -10q-2 -2 -2 -7h-15z" />
<glyph unicode="$" horiz-adv-x="1171" d="M115 174l30 109l299 45l107 12v186l4 4l8 5q2 2 10 6q16 16 -10 16q10 39 12.5 63.5t2.5 45.5l-117 20l-58 -33l-176 84l-65 168l61 236l111 176q14 0 20 2q10 0 23.5 1t34.5 3q80 6 153 61h-4q-4 10 -2 42t-6 83q-23 31 -25 55.5t-6 63.5q10 4 37 -2t68 -16t65.5 -17.5 t38.5 -9.5v-16q0 -8 -1 -19.5t-1 -27.5q-2 -16 -2 -30.5v-27.5v-41q16 4 37.5 10.5t44.5 12.5q12 4 21.5 6t15.5 4q4 2 7 2t7 2l115 10l6 -90l-141 -41l-105 -45l-8 -2v-141v-26.5t2 -30.5q0 -12 1 -34t3 -48.5t5 -53t10 -51.5q-27 -4 -26 -10t-3 -4h-33q16 -14 39 -30.5 t55 -43.5q68 -41 158 6q20 -35 41.5 -71.5t46.5 -77.5q12 -20 21.5 -33.5t15.5 -24.5l12 -18l-63 -221l-56 -55l-104 -156h-152l27 -109l2 -118h-141l-21 63l-16 90v74q-61 4 -114.5 -14.5t-82.5 -18.5l-75 21zM410 1001l86 -122l88 6q2 117 -1 184.5t3 97.5q-2 4 -3 17.5 t-5 29.5l-11 -4l-90 -96zM664 467l14 -115l22 2l125 127l-30 94l-121 72v-45q0 -16 1 -25.5t1 -15.5v-12z" />
<glyph unicode="%" horiz-adv-x="1529" d="M25 1130l84 138l75 73q61 61 76 129l37 5q12 -6 44 -9.5t60 -3.5h33q18 0 30.5 1t22.5 3q6 2 19 2l170 -159l16 -357l-112 -145q-45 49 -111 33q-16 -6 -27.5 -9.5t-19.5 -7.5q-12 -4 -14 -4l-299 55zM127 94q6 8 14.5 18.5t18.5 22.5q25 33 51.5 55.5t28.5 26.5 q23 45 49 78t43 47q6 6 12 10t15.5 10.5t25.5 18.5t43 35l322 438q4 8 10 14t14 16.5t21 24.5q10 14 38.5 46t64.5 75t74 94.5t66 104.5q51 31 81 57.5t51.5 53t43 54t58.5 60.5l41 4l123 -33l-6 -71q-20 -16 -50 -51t-51 -52q-74 -47 -86 -94h-12q-10 -4 -17 -10 q-4 -4 -6 -12.5t9 -16.5l-330 -344l-295 -403q-4 -6 -12.5 -3t-19.5 1t-26.5 -16.5t-33.5 -55.5q0 -4 -4 -23.5t-4 -33.5v-11q-27 -23 -43.5 -29.5t-29.5 -11t-26.5 -9.5t-32.5 -23q-14 -12 -31.5 -33t-33.5 -51q-39 -61 -47 -68h-29q-20 0 -51 10l-21 13q-12 8 -18 10z M215 1124l21 -112l73 -29q8 -2 16.5 -2t18.5 -2q14 -2 30.5 -5t28.5 -5q-2 20 -7 41.5t-13 44.5q14 33 27.5 67.5t22.5 66.5t10 57.5t-9 41.5q-86 -2 -144.5 -47t-74.5 -117zM801 344l88 139l72 72q53 51 73 107l72 14q6 -2 20 -2h25q43 4 57 6q6 2 21 2l203 -162l77 -352 l-49 -82l-110 -41q-41 16 -84 4l-62 -12l-317 51zM991 338l19 -115l71 -28l45 -5q18 -2 39 -4t37 -6q-2 23 -9 44.5t-13 41.5q33 63 8 137q-8 35 -19.5 59.5t-19.5 41.5z" />
<glyph unicode="&#x26;" horiz-adv-x="1587" d="M90 377l41 184l236 195l102 151l-63 60q4 6 0.5 13t-9.5 13q-4 8 -8 13.5t-22 19.5l-45 250l192 199l238 71l278 -39l57 -123l9 -94l-78 -168l-35 -28l-70 34l56 140l-107 137l-164 2q-8 -4 -14 -6q-8 -4 -18.5 -10.5t-22.5 -14.5q-59 -35 -39 -53v-145q10 -16 5 -27.5 t3 -22.5l33 -12l33 -26q10 -16 18.5 -33l16.5 -33l55 2l96 43l94 -27l-20 -41l-168 -83q25 -45 31 -62.5t14 -38.5q23 -37 31 -60.5t10 -27.5l90 -51l101 -313q8 6 27.5 18t41.5 33q57 39 60 37q2 -4 43 116q43 113 51 111q2 0 4 13.5t-23 17.5q-33 6 -61.5 -3.5t-40.5 7.5 q-8 6 -5 20.5t10 30.5t16.5 29.5t15.5 17.5q20 20 121 -10q100 -20 118 -19q14 8 43 -28q14 -14 17.5 -31.5t7.5 -19.5q4 -4 7 -2t-11 -13q-10 -16 -15.5 -25.5t-9.5 -15.5q4 -39 -21.5 -83t-68.5 -72q-84 -53 -80 -70q2 -23 -13 -39t-46 -33q-68 -35 -59 -39q16 -8 14 -71 q-4 -57 158 -78q4 -2 116 4q18 2 35 3t29 1l37 -45l-37 -90h-377q-23 33 -59 22q-18 -6 -37 1.5t-41 23.5q23 35 -2 47q0 8 -14.5 4t-30.5 -4l-127 -90l-291 -43l-270 82zM385 510l76 -231l96 -103l184 -18q45 14 66.5 27.5t25 26.5t-8 26.5t-29.5 27.5l-54 174l-108 199 l-35 76q-16 43 -39.5 46t-52.5 -20l-68 -57z" />
<glyph unicode="'" horiz-adv-x="573" d="M147 1550q18 10 24.5 20.5t6.5 24.5l37 19q6 -2 24.5 -4t40 -4t41 -5.5t29.5 -7.5q55 -25 99 -18l26 -51q-4 -14 -6 -28.5t-6 -31.5q-4 -16 -6 -27.5t-4 -21.5q-2 -6 -2 -18l-39 -27v-110l-41 -119h-92h-20.5t-18.5 2q-59 6 -60 16q0 6 -1 25.5t7 34.5q2 6 -2 16t-8 21.5 t-7 21.5t1 16q2 6 1 23.5t1 21.5q-16 4 -16 93q2 47 -1 74.5t-8 43.5z" />
<glyph unicode="(" horiz-adv-x="819" d="M268 600l35 408q2 10 6 37.5t8 54.5l-6 2q4 33 18.5 64.5t35.5 66.5q45 68 53 113q4 16 25.5 55t68.5 102q18 27 32.5 46.5t24.5 33.5l52 39q8 -2 25.5 -4t36.5 -5t37.5 -6t29.5 -8q4 -20 -41 -92q-49 -76 -45 -86q-4 -12 -7 -20q-4 -10 -8 -25.5t-10 -34.5 q-10 -39 -15.5 -61.5t-7.5 -30.5l-34 -55q-33 -51 -37 -115l-27 -465l19 -133q8 -59 26.5 -112.5t44.5 -102.5l-22 -28l32 -123q-2 -27 44 -101q25 -41 34 -65l-45 -76l-114 2l-33 29q-2 61 -60 143q-35 53 -62.5 96t-43.5 78q16 -2 18 11.5t-14 17.5z" />
<glyph unicode=")" horiz-adv-x="819" d="M127 1599q8 4 26.5 7.5t39 6.5t38 5t25.5 4l51 -39q10 -14 24.5 -33.5t33.5 -46.5q47 -63 68.5 -102t25.5 -55q8 -45 53 -113q20 -35 34.5 -66.5t18.5 -64.5l-6 -2q4 -27 8 -54.5t6 -37.5l35 -408l-73 -350q-16 -4 -14.5 -17.5t18.5 -11.5q-16 -35 -44 -78t-63 -96 q-57 -82 -59 -143l-33 -29l-115 -2l-45 76q10 25 35 65q45 74 43 101l33 123l-23 28q27 49 45.5 102.5t26.5 112.5q16 119 18 133l-26 465q-4 63 -37 115l-35 55q-2 8 -7 31t-15 61q-8 18 -11.5 34t-7.5 26q-2 8 -6 20q4 10 -45 86q-45 72 -41 92z" />
<glyph unicode="*" horiz-adv-x="688" d="M53 1092v79l129 78l-96 72l-23 109h84l109 -25l6 61q6 6 14 27q4 14 5.5 35.5t-5.5 52.5l121 31l27 -64l2 -30l20 -88h5l127 34l49 -106l-41 -29q-16 -12 -33.5 -29.5t-30.5 -35.5l-18 -13l53 -45l82 -67l-66 -90l-114 41l-39 -46l-14 -77l-97 -47l-53 145l-18 27h-185z " />
<glyph unicode="+" horiz-adv-x="1046" d="M34 616.5q1 16.5 4 36t6 36t3 22.5q0 2 34 14t105 14q137 6 138 11q0 8 38 14q27 8 35.5 21.5t8.5 26.5t-2.5 27.5t2.5 24.5q2 35 1 73t-4 81q-2 25 -1 45t1 37l48 37q39 -2 88 14t84 20l49 -41q2 -23 3 -38t-3 -21q-2 -20 2 -29q16 -14 5 -51t-28 -86q-16 -37 -20 -43 t-13 -12q-47 -8 -49 -36t21 -44q14 -6 26.5 -3t23.5 9t18.5 12.5t11.5 6.5l176 6l115 -35l38 -117v-28.5t-4 -30.5h-288q-29 0 -43.5 2t-26.5 4q6 -23 6 -25v-79q0 -72 3 -120t7 -75l-39 -55h-36q-6 0 -23.5 -4.5t-37 -10.5t-36 -12t-22.5 -12l-49 -4l-9 30 q-14 55 -14 101.5t-4 97.5q0 2 -2 11.5t-2 25.5l16 113q-23 -2 -59.5 -4.5t-89.5 -6.5q-102 -10 -105 -6q-10 4 -8 18.5t-4 20.5q-2 4 -10 0t-33 -6q-45 -2 -49 2t-3 20.5z" />
<glyph unicode="," horiz-adv-x="616" d="M115 66v49v18t2 21q2 45 2 73.5t-4 46.5q10 0 22.5 8.5t28.5 18.5t37.5 19.5t52.5 11.5q29 4 54.5 0t43.5 -10q21 -11 37 -19l43 -217q-4 -20 -9 -43t-11 -49q-4 -29 -14.5 -48.5t-18.5 -29.5l-45 -39l-72 -72l-119 19q39 20 56 43q8 8 23.5 30.5t43.5 59.5q12 18 2 59 q-8 39 -12 39h-18h-19.5t-25.5 -2q-53 -4 -80 13z" />
<glyph unicode="-" horiz-adv-x="1021" d="M84 666l18 39q27 4 42.5 4t24.5 -2t13 -4.5t8 -2.5q2 0 35 4.5t99 10.5q66 8 146.5 11t174.5 3h279l37 -59l8 -121q-2 -2 -6 -2t-8.5 -1t-10.5 -1q-25 -4 -22 10h-54q-84 4 -309 -6q-117 -4 -184.5 -11.5t-91.5 -19.5q-10 -4 -15.5 -5t-6.5 -1t0 -3t1 -11h-98l-62 28 q-4 29 -9 67t-9 73z" />
<glyph unicode="." horiz-adv-x="579" d="M29 125q10 27 15 58.5t7 70.5q0 18 1 33.5t3 25.5q2 8 2 21q6 4 52 6q49 4 55 10q0 -2 24 8l25 9q4 0 16.5 -3.5t25.5 -6.5t24.5 -6t15.5 -3q14 0 18 1t7.5 1h7.5t16 -2q-4 -4 -3 -7t3 -7l6 -4v-2l-6 -156l-18 -72q-2 -2 -11 -6l-24 -24q-16 -10 -26.5 -17.5t-12.5 -7.5 q-4 4 -109 37q-55 20 -81.5 29.5t-32.5 13.5z" />
<glyph unicode="/" horiz-adv-x="890" d="M18 -66l2 46q27 45 62 86q45 61 41 153q2 -2 14.5 13.5t26.5 34t25.5 33.5t11.5 13l129 293l215 557q4 12 21.5 35t29.5 41l-10 6q33 53 49 85t39 67q8 14 16 35.5t17 54.5q4 20 10 35.5t10 25.5l117 8q8 -4 24.5 -8t35 -8t32.5 -8t20 -10l-11 -33t-19 -53 q-12 -31 -17.5 -47.5t-7.5 -20.5q-8 -47 -22.5 -83t-22.5 -48q-4 -6 -8 -11t-9 -13.5t-15.5 -23.5t-26.5 -42l-232 -588q-2 -4 -3 -8t-3 -8q-4 -8 -8 -19.5t-10 -25.5t-19.5 -42t-29 -66t-31 -84t-25.5 -97l-47 -88q-4 16 -12 29q-47 -12 -68.5 -36t-24.5 -49.5t6 -48 t23 -30.5q8 -4 4 -10.5t-13 -15.5t-19.5 -22.5t-16.5 -31.5l-51 -15z" />
<glyph unicode="0" horiz-adv-x="1288" d="M109 338q12 123 14 214t10 155q39 29 82 141q45 106 57 168q10 8 24.5 25.5t31.5 27.5l493 164q0 -51 53 -41q14 4 25.5 5t18.5 3q6 2 12 2q27 -33 51.5 -41t45 -7t35.5 4t23 -7q28 -41 91 -104q2 -23 5 -53.5t7 -61.5t9 -54.5t11 -31.5q12 -20 24.5 -43t27.5 -51 q-10 -10 -26.5 -47t-25.5 -66q-6 -29 -10 -43t-6 -18q-4 -4 -9 -9.5t-9 -13.5q-10 -12 -20.5 -33.5t-27.5 -54.5q-33 -66 -58.5 -108t-41.5 -64q-10 -10 -22.5 -26.5t-18.5 -69.5q-35 -8 -73 -15.5t-76 -11.5q-39 -4 -59.5 -6t-24.5 -2q-53 0 -101.5 -6t-87.5 -14.5 t-66.5 -14.5t-39.5 -6l-224 67zM434 616q4 -16 13.5 -39.5t3.5 -72.5q-4 -25 -1 -42.5t7 -30.5t7 -23.5t1 -22.5q10 -4 18.5 -14.5t17.5 -22.5t22.5 -24.5t35.5 -22.5q43 -23 57.5 -43t24.5 -20q18 0 27.5 6t14.5 14t6 14.5t5 6.5q8 0 23.5 -12.5t27.5 -16.5l119 80 q16 10 26.5 52t12.5 120q4 78 6 119.5t4 74.5q4 59 4.5 117.5t8.5 93.5q-63 92 -102.5 132t-49.5 40q-23 0 -117 -57q-90 -59 -98 -70q-27 -43 -46 -79.5t-36 -67.5q-35 -59 -43 -189z" />
<glyph unicode="1" horiz-adv-x="913" d="M283 264q0 20 4 88t11 159t14 193.5t14.5 192.5t13.5 155.5t8 84.5q2 10 2 25.5t2 37.5l51 74q29 4 65 9t60 7l41 4q27 -53 27 -51q2 4 23.5 -3t37.5 -46l43 -88q-2 -8 -3 -17.5t-5 -19.5q-4 -18 -10 -46t-12 -65q-4 -25 0 -53t-2 -63q-4 -18 -13.5 -45t-19.5 -54.5 t-19.5 -53t-11.5 -40.5q-6 -39 1 -71.5t3 -57.5q-4 -29 -19.5 -47t-15.5 -22q0 -14 8.5 -23.5t6.5 -19.5q-16 -92 -22.5 -152.5t-8.5 -108.5l-43 -57q-23 0 -54.5 3t-53.5 7q-37 12 -78 9l-33 24q4 47 -4 60q-8 16 -8 71z" />
<glyph unicode="2" horiz-adv-x="1142" d="M119 999q0 10 5 31t10 43.5t10.5 43t5.5 32.5q12 4 27.5 11t23.5 7q43 0 55 21q8 27 25 26q4 0 44 3.5t121 11.5q39 4 76 8t65.5 8t48 7t23.5 3q8 -8 25.5 -17t38 -18.5t40 -18.5t34.5 -21q14 -12 26.5 -23.5t26.5 -22t34.5 -17.5t53.5 -11l70 -119q16 -43 -17 -76 q-29 -31 -6 -61l-11 -55t-13 -68l-41 -57q-31 -8 -63 -24.5t-60 -35.5q-4 -4 -4 -10v-10q0 -4 -3.5 -10.5t-13.5 -14.5q2 -4 -4 -7t-15 -9t-17.5 -15.5t-8.5 -27.5q-33 -4 -51 -21.5t-45 -35.5q-29 0 -39 -25t-27 -64q4 -31 -16 -79q-14 -45 -14 -60q0 -16 8 -16h10 q14 0 53 9t85 23.5t91 30t72 27.5q29 14 50.5 19t38 7.5t30.5 2.5t31 4l61 -58q-12 -23 -11 -46t1 -34q-8 -12 -29.5 -19t-54.5 -17q-6 -4 -28.5 -8.5t-63.5 -20.5q-82 -27 -101 -25q-16 -10 -67 -9t-133 -15q-43 -8 -84 -15.5t-74 -15.5q-18 -4 -36.5 -8t-35.5 -8 q-23 -10 -36 -5t-19 7q-4 0 -19.5 -7.5t-37.5 -17.5l-9 -8l-65 61q4 6 5 10.5t3 8.5q2 23 -6 29t10 16q23 53 33 97t12 81q0 14 9.5 29.5t21.5 32t23.5 35t13.5 36.5l69 86q10 4 20.5 7t22.5 8q16 6 20.5 11t3.5 10l-2 10t3 9q20 14 38.5 21.5t35.5 -0.5q35 -8 57 16 q10 8 22.5 15.5t20.5 17.5q2 4 11.5 19.5t19.5 44.5q12 29 20.5 45t8.5 20q0 6 -7 12l-4 5l19 165l-8.5 8.5l-8.5 8.5q-10 8 -20 21.5t-25 29.5q-53 68 -71 68q-2 0 -26 -1t-69 -4q-47 -2 -79.5 -4t-49.5 -8l-129 -80z" />
<glyph unicode="3" horiz-adv-x="1179" d="M139 115q16 16 29.5 27.5t28.5 19.5q14 8 28 14q10 -6 25.5 -12t32 -11.5t31 -9.5t20.5 -8q27 -31 61 -14q31 14 43 14q18 0 68 37q31 20 50 31.5t28 15.5l88 80q8 4 15 8t15 8q12 6 23.5 12.5t15.5 10.5q-2 111 -21.5 167t-19.5 62q-2 14 -34 13q-31 -4 -35 6 q-6 16 2 24q10 12 -25 29l64 51l164 -2q25 -16 57 -24q35 -10 20 -33q14 -2 35 10t29 4q39 -29 37 -37t33 -37q18 -47 -9 -92q-6 -10 -7 -28.5t2 -39t7 -39t9 -30.5q-20 -16 -25.5 -36.5t-11.5 -26.5q-14 -10 -14.5 -24.5t1.5 -41.5l-180 -127q-55 -6 -111.5 -14.5 t-113.5 -20.5q-109 -18 -160 -18q-8 0 -63 -6q-14 -2 -23.5 -2h-15.5q-10 0 -15 -2q-55 12 -102 26t-74 25zM205 1323q10 20 31.5 37.5t52.5 52.5q53 0 109.5 2t72.5 2q10 0 40 4t68.5 7.5t80.5 3.5t77 -9q35 -10 60.5 -24.5t51 -31.5t54.5 -36.5t68 -38.5l-6 -149 q-20 -23 -14.5 -39.5t28.5 -42.5q-4 -16 -7 -27.5t-6 -22t-4 -22.5t-1 -33q-41 -4 -72 -31.5t-62 -47.5q-10 -8 -25.5 -21.5t-19.5 -17.5q-2 0 -6 1t-9 -4.5t-9 -18.5t-4 -42q-20 -4 -30.5 -10t-18 -14.5t-12.5 -16.5t-17 -14q-20 0 -53 -15.5t-56 -56.5l-241 -10 q-4 0 -10.5 3t-15.5 12.5t-20.5 27.5t-23.5 51l12 27q18 4 43 10t56 18q86 31 104 50q35 29 53 28q16 4 43 27q8 4 31 11t31 24q4 4 6 41q8 35 8 51q0 10 8 45q6 47 8 49l-26 64q-4 8 -23.5 28.5t-27.5 20.5q-2 0 -37 41q-27 45 -66 32l-100 11l-141 -19z" />
<glyph unicode="4" horiz-adv-x="1216" d="M109 422q4 14 11 42t-1 50q14 31 36.5 81t49.5 95l43 78q16 29 26 61q4 8 19.5 25.5t23.5 34.5q4 12 7.5 18t11.5 25q2 2 8 5t8 11q0 2 7.5 20.5t15.5 40t15 40t9 22.5q10 14 26.5 44t33.5 73q10 23 17 39t11 26q8 16 11 23q2 2 3 12t3 12q6 6 18.5 10.5t34.5 12.5 q25 -23 119 -37q92 -12 96 -12l33 -57l-55 -127q-16 0 -23.5 -1.5t-13.5 -1.5q-4 -10 -17.5 -41.5t-30 -66.5t-29.5 -63.5t-18 -34.5v-23q-20 -10 -28 -12t-19 -21q-18 -29 -31.5 -50t-27.5 -36q-10 -16 -22.5 -42.5t-28.5 -65.5q0 -8 -11.5 -28.5t-9.5 -29.5q2 -8 18.5 -22 t20.5 -27q2 -4 49 0q23 2 37.5 3t18.5 1q10 -12 41.5 -11t83.5 1q10 57 24.5 131t24.5 127q23 4 35 12.5t34 20.5l41 -6q10 -12 41 -17q10 -2 18.5 -2t14.5 -2t12 -2l66 -10q2 -8 2 -15t2 -16q2 -12 1 -23t-7 -18q-12 -14 -20.5 -35.5t-14.5 -46t-11 -48t-11 -42.5 q16 2 37.5 2h43.5h84l19 -61v-39q-39 0 -93.5 -1t-105.5 -5q-6 -29 -11 -52.5t-5 -29.5v-35q-8 0 -12 -96v-70l-39 -39q-31 -12 -58.5 -25.5t-62.5 -29.5q-4 -4 -8 -4h-35q-6 0 -4 3t-4 3q-4 0 -9.5 -4t-15.5 -8l-35 28q-4 12 -4 19v12q0 12 8 31.5t15 30.5q2 25 3 62.5 t13 60.5q-2 29 -1 57.5t5 60.5q-78 -10 -145.5 -14t-77.5 -4q-4 0 -18.5 2t-36.5 8q-23 4 -30 -4t-11 -10q-2 0 -16.5 -2t-43.5 -8q-59 -10 -61 -13q-2 0 -13.5 5t-15.5 5t-13 -1t-20 -1h-26q-10 0 -26.5 8.5t-16.5 26.5q0 8 -4.5 14.5t-1.5 12.5z" />
<glyph unicode="5" horiz-adv-x="966" d="M109 766q4 29 10 52.5t8 37.5q0 4 -4 15.5t-4 17.5t4 10t6 8q2 14 4 32.5t4 35t3 28t1 15.5t4 4h-24q14 31 15 41t1 27q18 2 29.5 6t17.5 8q8 6 9 10q-4 14 -7 25q-12 20 -28 30l13 32.5t6 24t-2 25t-9 37.5q-4 23 18.5 32t38.5 9h76q45 0 89 1t75 1h35l22 -2q8 0 23.5 4 t29.5 4q2 0 14.5 -4t24 -6t17.5 1t-2 18q23 6 25.5 7t6.5 -5q6 -8 43 -9q10 0 8.5 1t14.5 1l16 -24l7 -49l-39 -45l-60 -2l-18 -7q-18 -6 -49 -12q-66 -18 -86 -12l-4 -6q-4 -6 -11.5 -14.5t-11.5 -10.5q-20 -53 -25.5 -88t-5.5 -61.5t2 -49t-4 -49.5l23 -43q23 -4 50.5 -7 t61.5 -9q45 -6 70 -10t29 -4q2 -2 4 -4.5t6 -6.5q4 -6 13 -12t20 -14q12 -10 20 -9t14.5 5t9.5 10t5 6q35 -25 59.5 -42t38.5 -17v-13.5t2 -15.5q2 -14 4 -34.5t6 -49.5q6 -53 17.5 -107.5t30.5 -107.5q-16 -20 -26.5 -44t-19.5 -46l-16 -49h-22l-136 -119l-26 6 q-2 0 -10.5 -7t-10.5 -7q-14 -10 -35.5 -21.5t-44 -20.5t-41 -15.5t-26.5 -6.5q-6 0 -28.5 -3t-53.5 -7t-69 -7t-74 -3q-147 0 -152 10l-18 82l30 33h64q4 0 11 9t24 11q45 -45 120 17q20 14 44 25t45.5 19.5t36 13.5t16.5 7q4 4 11 8t11 8q10 20 18.5 26.5t8.5 21.5l45 92 q-10 39 -25 135q-14 94 -22 94l-168 51l-35 -12q-23 -6 -24 -6h-31q-14 0 -25 2q-29 2 -48 3t-32 1l-51 -6z" />
<glyph unicode="6" horiz-adv-x="1183" d="M137 643l25 193l16 73l31 252l139 154l221 145l183 35h39l92 -72l-183 -77l-98 -64l-151 -192l34 -117l2 -111q20 -16 54 -24.5t84 28.5q20 14 28.5 26.5t11.5 23t5 16.5t12 8l98 -6l176 -51q6 -23 17.5 -35t25 -22.5t28.5 -21.5t30 -32q14 -18 23.5 -40.5t16.5 -44 t12 -38t13 -24.5q-4 -12 -7 -29.5t-3 -38t6 -42t21 -40.5q-4 -4 -8.5 -10t-8.5 -14q-10 -12 -22.5 -32t-28.5 -46q-66 -102 -70 -103l-73 -37l-35 -6q-31 -6 -43 -6l-4 -4q0 -2 -2 -4q-47 -25 -207 -61l-223 -35l-209 164l-8 20t-9 23q-8 23 -15 53.5t-13 75.5 q-12 86 -17.5 134t-5.5 56zM420 604q4 -10 10 -23.5t10 -25.5l13 -29l-13 -98l72 -139q12 -12 39 -17q6 -2 22 -2l50 33q6 0 22 4q10 4 26.5 8t39.5 11q88 23 120 98q14 35 14.5 54.5t-14.5 53.5q-33 68 -40 123l-39 37q-12 4 -19 8q-10 4 -23.5 9.5t-33.5 15.5 q-72 29 -88 25q-8 -2 -25.5 -14.5t-25.5 -20.5q-14 -14 -25.5 -24.5t-19.5 -20.5l-25 -31q-4 -8 -8 -14.5t-6 -10.5z" />
<glyph unicode="7" horiz-adv-x="1030" d="M12 1030l19 66q27 8 49 15t39 11q23 6 52.5 11.5t86.5 17.5l170 31q53 -16 137 -25q23 -2 50.5 -3t52.5 -1h75l54 6l22 -39l45 -22l47 -86l-6 -72q-10 -25 -24.5 -61.5t-32.5 -83.5q-18 -51 -35.5 -116t-31 -124t-21.5 -102t-8 -50q0 -10 7 -20t5 -25q-4 -18 -8 -25 t-7.5 -11.5t-5.5 -10.5t-2 -22q0 -6 -8 -9.5t-37 -9.5q-14 -2 -18 -13t-4 -24.5t3 -24.5t3 -13q0 -4 2 -17.5t31 -11.5t32 -11.5t3 -17.5q0 -18 1 -46t1 -56l-58 -60q-23 -2 -56.5 -4t-70.5 -3t-70.5 -3t-56.5 -6l-47 51q6 27 2 35q-2 10 -3 24.5t-1 34.5q0 35 6 97.5 t21 154.5q8 43 17 105.5t18 120.5q4 35 8 69.5t8 69.5q8 6 18 18q6 10 12.5 27.5t8.5 44.5q2 33 12 51.5t20.5 27.5t20.5 15t12 15q12 29 9.5 55t-16 41.5t-35 15.5t-46.5 -22h-75q-63 -2 -112.5 -11.5t-88.5 -19.5t-67.5 -21.5t-49.5 -17.5l-53 12z" />
<glyph unicode="8" horiz-adv-x="1183" d="M101 493q1 5 1 13l97 225q27 4 62.5 3t61 5t32.5 22.5t-23 57.5l-101 51l-16 88q-4 4 -6 11q-4 6 -8 14t-11 21q-25 43 -26 88q-4 74 35 137l37 74l126 108l422 21l146 -80l112 -66l-4 -278l-53 -58l-178 -123q-27 -55 -2.5 -69.5t69 -15.5t89.5 -1t61 -24 q33 -49 53.5 -83t32.5 -50q-2 -10 -3 -47t-1 -103q0 -63 -4 -95t10 -54q-8 -12 -16 -21q-10 -10 -25.5 -24.5t-42.5 -32.5q-102 -78 -113 -78l-67 8q-6 -2 -33 -5t-33 -3q-12 -6 -27.5 -23.5t-34 -37t-41 -36t-48.5 -18.5q-29 -4 -49.5 -5t-34.5 -3q-8 -2 -15.5 -2h-13.5 l-383 125q0 14 -2 25q-2 12 -3 31.5t-5 47.5q-2 27 -4 39.5t-3 19.5t-3 15t-6 27q0 6 11 16t25 12q6 0 7.5 7.5t-0.5 16.5t-5.5 17.5t-3.5 10.5q-2 10 -19.5 18t-19.5 21q-4 35 -3 40zM362 453l41 -166l105 -74q4 -2 9 -4t11 -4q10 -4 27.5 -9.5t40.5 -13.5q90 -31 90 6 l139 97q2 43 0 97t-28 124q-27 72 -62 120t-41 79l-24 26q-20 -10 -39 -25.5t-33 -19.5q-4 -4 -19.5 0t-43.5 10q-29 6 -32 8.5t-7 0.5q-2 -14 -45 -39q-20 -10 -30.5 -17.5t-12.5 -9.5q-4 -4 -1 -10t5 -15.5t2 -22.5t-11 -32q-10 -18 -14 -31.5t-6 -23.5q-4 -10 0 -17z M365 1176l61 -175l201 -120l88 20l55 115l-27 256l-112 69l-191 -49z" />
<glyph unicode="9" horiz-adv-x="1136" d="M61 715q4 10 20.5 49t49.5 110q33 70 49 105q4 10 8.5 18.5t8.5 16.5q18 8 40.5 19t42 23.5t32 26t12.5 25.5q27 16 91 32.5t169 37.5l209 41l227 -150q0 -20 24 -266q8 -123 19 -185l6 -61l-41 -178l-74 -217l-127 -121l-219 -137l-231 -27h-37l-41 68l145 49l197 82 l74 104l28 148v164q-31 -14 -70.5 -27.5t-86.5 -34.5q-49 -16 -78 -27.5t-43 -17.5l-92 -20l-174 67q-12 43 -29.5 86t-37 80t-38 67.5t-33.5 49.5zM387 674.5q0 -25.5 2 -33.5q6 -8 18.5 -39t18.5 -63l106 -23q6 2 22.5 9t41.5 16q25 10 40 15l21 7q20 20 43 51 q35 35 35 43t2 15q2 8 3 18t5 27q13 56 -16 74l25 106l-68 160h-26.5t-29 -2t-23.5 -5t-9 -12q-6 -2 -18 -10q-12 -6 -52 -31q-72 -43 -104 -104q-35 -66 -37 -150v-68.5z" />
<glyph unicode=":" horiz-adv-x="604" d="M143 190q14 31 19.5 62t7.5 65q0 16 1 29.5t1 22.5q0 10 2 16q4 2 19.5 5t33 6t32.5 6.5t20 7.5l16 8l8 4t8 6q4 0 17.5 -2t33.5 -6q20 -6 34 -8t18 -2q16 -2 25.5 -2t4.5 2q-4 4 31 -4q-8 -8 1 -16.5t5 -8.5l-6 -135l-24 -90q-6 -6 -13 -9q-6 -4 -13 -9t-17 -15 q-47 -31 -52 -31q-2 0 -102 43q-53 23 -78.5 37t-32.5 18zM143 1071q14 27 19.5 58.5t7.5 66.5q0 16 1 29.5t1 23.5q0 12 2 17q4 2 19.5 4t33 5t32.5 6t20 7q0 -2 16 10l16 13q6 0 17.5 -4t33.5 -11q23 -4 35.5 -7t16.5 -3q16 0 25.5 1t4.5 3q-4 4 31 -4q-4 -4 -3 -9t4 -8 l5 -5t0 -2l-6 -136l-24 -90l-13 -8q-12 -10 -30 -24q-23 -16 -34.5 -23.5t-13.5 -7.5t-28.5 9t-77.5 32q-53 23 -78.5 37t-32.5 20z" />
<glyph unicode=";" horiz-adv-x="610" d="M143 1071q14 27 19.5 58.5t7.5 66.5q0 16 1 29.5t1 23.5q0 12 2 17q4 2 19.5 4t33 5t32.5 6t20 7q0 -2 16 10l16 13q6 0 17.5 -4t33.5 -11q23 -4 35.5 -7t16.5 -3q16 0 25.5 1t4.5 3q-4 4 31 -4q-4 -4 -3 -9t4 -8l5 -5t0 -2l-6 -136l-24 -90l-13 -8q-12 -10 -30 -24 q-23 -16 -34.5 -23.5t-13.5 -7.5t-28.5 9t-77.5 32q-53 23 -78.5 37t-32.5 20zM158 268q2 49 18.5 71.5t11.5 39.5q27 4 65 28.5t91 32.5q25 4 48.5 -1t39.5 -13q23 -10 39 -20l47 -230q-12 -43 -26 -113q-14 -68 -33 -86q-2 -4 -23.5 -15t-42.5 -34l-82 -80l-96 19 q23 16 38 27.5t19 21.5t23.5 37t48.5 72q14 20 2 67q-18 47 -20 47q-6 -2 -15 -2q-6 0 -16 -1t-23 -1q-49 -2 -84 17q-4 8 -8 15t-8 17q-6 16 -11 38t-3 46z" />
<glyph unicode="&#x3c;" horiz-adv-x="876" d="M170 569l57 191q72 41 90 129q25 96 43 115q12 8 70 151q14 35 24.5 62.5t18.5 46.5q4 10 7 19t7 17q6 4 17 15q8 6 17 16t24 23q61 51 92 98l98 59l121 -57q-4 -8 -6 -14l-10 -19q-4 -10 -13 -24q-16 -27 -27.5 -48.5t-21.5 -37.5l-37 -66q-12 -23 -27.5 -52.5 t-35.5 -64.5q-39 -74 -71 -125t-56 -83q0 -8 1 -17.5t3 -1.5q-6 -29 -17.5 -61.5t-31.5 -71.5q-16 -41 -29.5 -68.5t-21.5 -46.5l34 -59l15 -43q8 -23 19.5 -54.5t27.5 -74.5q66 -172 131 -213l149 -217l-174 -117l-104 96l-68 62l-151 284l-105 234z" />
<glyph unicode="=" horiz-adv-x="1009" d="M66 1036l18 39q27 4 42 4t24.5 -2t13.5 -4t8 -2q2 0 35 4t98 10q66 8 146.5 11.5t175.5 3.5h278l37 -60l8 -120q-2 -2 -6 -2t-8 -1.5t-10 -1.5q-25 -4 -23 11h-53q-84 4 -309 -6q-117 -4 -184.5 -11.5t-92.5 -19.5q-10 -4 -15 -5t-6 -1t0 -3t1 -12h-99l-61 29 q-4 29 -9 66.5t-9 72.5zM82 471l18 39q27 4 42.5 4t24.5 -2t13 -4t8 -2q2 0 35 4t99 10q66 8 146.5 11.5t174.5 3.5h279l36 -60l9 -121q-2 -2 -6 -2t-8.5 -1t-10.5 -1q-25 -4 -22 10h-54q-84 4 -309 -6q-117 -4 -184.5 -11t-91.5 -19q-10 -4 -15.5 -5.5t-6.5 -1.5t0 -3 t1 -11h-98l-62 29q-4 29 -9 66.5t-9 72.5z" />
<glyph unicode="&#x3e;" horiz-adv-x="819" d="M129 1495l121 57l96 -59q33 -47 86 -98q16 -12 27.5 -22.5t19.5 -16.5q10 -10 17 -15q4 -8 7 -17t7 -19q8 -18 17.5 -46t25.5 -63q14 -37 16 -64.5t-1 -47t-7 -30t-2 -12.5q6 -6 20.5 -15t32 -23.5t32.5 -33t22 -40.5q20 -90 92 -129l57 -193l-61 -16l-107 -234 l-149 -284l-70 -62l-104 -96l-170 117l147 217q68 43 129 213q16 43 26.5 74.5t18.5 54.5l14 43l39 59q-8 20 -22 49t-31 68q-18 41 -29.5 74t-17.5 59q0 2 5 7t3 5q-23 29 -54.5 81.5t-72.5 127.5q-84 154 -106 187q-10 16 -21.5 37.5t-25.5 48.5q-8 14 -12.5 24.5 t-8.5 18.5q-2 6 -6 14z" />
<glyph unicode="?" horiz-adv-x="1153" d="M158 1448l14 35q10 6 25.5 12t31.5 14q12 2 31 4.5t41 2.5q51 0 51 47q29 0 75 8t95 14t97.5 8t80.5 -10q12 -12 33 -24.5t42.5 -21.5t41 -15t29.5 -6l55 -37q-4 -35 2 -47.5t17.5 -16.5t27 -5t27.5 -9l24 -133l-36 -250l-224 -197l-49 -22l-53 -123l-41 -76l-37 -61 l-131 -31l-33 41l45 282q2 6 11 19q4 8 12 18.5t22 20.5q49 33 50 88q43 37 66.5 76t33.5 73.5t13 63.5t5 45l-39 80q-35 29 -72.5 40t-35.5 11q-16 -2 -27.5 -5t-19.5 13t-22.5 12t-30.5 -4q-27 0 -50.5 -3t-29.5 -3q-10 0 -17 -2q-8 -2 -19 -4t-26 -4q-39 -10 -65 -14 l-29 10zM322 141q8 25 13 52.5t7 56.5q2 14 2 25.5t2 19.5q0 10 2 14q14 6 38 14.5t52 30.5l92 -20q27 -4 31 0q18 18 29.5 8t17.5 -28.5t9.5 -34t3.5 -9.5l16 -86l-23 -71l-18 -7q-23 -10 -37 -24q-20 -14 -39.5 -22.5t-21.5 -8.5t-23.5 10.5t-60.5 26.5q-82 39 -92 53z " />
<glyph unicode="@" horiz-adv-x="1583" d="M118 628q1 50 5 115q6 131 18 175q10 33 19.5 55t15.5 37q4 10 15.5 35.5t27.5 66.5q8 23 67.5 67t176.5 99q113 59 177.5 99t80.5 67q63 2 102 1t80 -1h60q0 -6 118 -51q29 -12 51.5 -21.5t38.5 -15.5q10 -4 17.5 -6t11.5 -4l324 -322q-10 -35 -14.5 -84t-7.5 -99 t-7 -98.5t-12 -80.5q-66 -104 -230 -189q-86 -43 -140 -80t-58 -49q-4 2 -8.5 4t-8.5 6q-16 8 -49 31q-63 39 -106 49q-41 8 -45 -10q-2 -23 -47 -21q-4 2 -10.5 2.5t-14.5 2.5q-12 2 -30.5 4t-41.5 6q-90 12 -133 2l-137 192q0 82 92 252q94 166 76 203q35 10 97.5 16.5 t127.5 -10.5q135 -25 150 -4q8 4 19 19.5t24 19.5q53 -29 114 -14q66 18 68 -33q0 -20 -84 -211q-41 -98 -61.5 -167t-24.5 -112q14 -8 36.5 -16t57.5 -18q66 -25 66 20q35 16 96 102q29 41 47 68t23 35q4 39 -1.5 85t-21.5 97q-16 53 -24.5 84t-12.5 41l-250 168 q-35 12 -64.5 30.5t-64.5 14.5q-39 -2 -75.5 -12t-88.5 -29q-61 -33 -120.5 -57.5t-113.5 -59t-101.5 -89t-81.5 -146.5q-10 -98 -14.5 -197.5t40.5 -202.5q6 -4 21 -22l31 -41q18 -25 45.5 -53.5t64.5 -57.5q78 -55 143.5 -77.5t116.5 -42.5q10 6 43 4t99 18t133 42t139 44 q23 10 51.5 48t65.5 59q10 6 17 11t15 9l54 -27l22 -84l-29 -83q-51 -39 -128.5 -72t-186.5 -60q-66 -16 -115 -27t-82 -20q-18 -4 -34.5 -7t-30.5 -7q-10 2 -21.5 3t-23.5 5q-23 4 -55.5 9.5t-73.5 15.5q-172 35 -283 121q-92 72 -164 200q-18 31 -30.5 57.5t-22.5 47.5 q-4 10 -8 21.5t-8 21.5q-2 33 -1 83zM621 537q2 0 12 -2q14 -2 20 0h13q10 -2 32 -3q18 0 78 7q59 6 76 16q6 4 14 14.5t15 12.5q14 20 14 28v21v31.5t2 39.5l8 101q2 29 4 47t2 31v47q-4 8 -10 18t-10 10t-20.5 -7t-49.5 -19q-16 -8 -27.5 -7t-20.5 4t-15 7t-10 4 q-4 -2 -10.5 -3t-10.5 -3q-2 -10 -5 -22.5t-7 -16.5t-4 -16v-27q0 -12 -1 -22.5t-8 -10.5q-2 0 -12 -2t-18 -2q4 -4 4 -10q4 -10 -5 -23.5t-16 -25.5q-12 -14 -2 -121q2 -47 -14 -71.5t-18 -24.5zM653 535l2 2z" />
<glyph unicode="A" horiz-adv-x="1320" d="M29 70q53 127 78.5 189.5t25.5 94.5q0 10 9.5 17.5t15.5 11.5q2 4 15 43t29.5 87t32 92t23.5 61q18 39 44 88t60 94q18 25 32 67.5t26 94t26.5 104.5t36.5 98q12 4 72 91q4 4 7 9t7 9l262 16q8 -10 18.5 -24.5t22.5 -30.5q39 -49 47.5 -77.5t10.5 -39.5q-4 -6 43 -139 q12 -33 20 -74t12.5 -76.5t4.5 -61.5l-2 -28q0 -4 65 -51q16 -12 19.5 -22.5t0.5 -18.5t-9.5 -14t-6.5 -8l56 -74l47 -178q27 -86 39 -146.5t12 -93.5q0 -4 2 -6q0 2 4 -10l-12 -53l-72 -13q-25 -4 -51.5 0t-54.5 4h-18.5h-28t-30 -1t-24.5 -1l-45 31q6 41 -3 59.5t-13 34.5 q-4 12 -16.5 39t-22.5 62q0 6 -20.5 36.5t-32.5 55.5l-25 -10q-10 0 -22.5 -6.5t-61.5 -6.5q-6 12 -20.5 17.5t-32 2.5t-34.5 -13.5t-30 -24.5l-84 -12q-8 18 -17 29.5t-18.5 21.5t-15.5 22.5t-6 32.5q41 10 48 26.5t11 14.5q12 -6 23 -6q-14 0 -8 4t55 20l150 19l30 -23 q33 -8 49.5 -4t22.5 15.5t7 26t3 24.5q4 23 -9 38t-36 27q-4 23 -15.5 52.5t-27.5 70.5q-14 39 -25.5 83t-19.5 81t-12 61.5t-6 28.5q-29 18 -47.5 3t-29.5 -43.5t-14.5 -60.5t-1.5 -44q-2 -4 -10 -13.5t-18 -19.5t-18.5 -19.5t-10.5 -13.5q-8 -14 -4 -30.5t-6 -28.5 q-41 -74 -96 -117q-14 -12 -22.5 -34.5t-10.5 -47t4 -48.5t22 -38q-20 -12 -31.5 -25.5t-18.5 -28.5t-13 -32.5t-14 -38.5q-35 -92 -35 -96l-29 -59l-26 -109q2 -31 -22 -37t-75 -6q-45 -11 -80 -11h-6q-37 1 -24 38z" />
<glyph unicode="B" horiz-adv-x="1282" d="M166 98q2 18 6 43q10 33 13 56.5t3 40.5q0 4 -2 17t-8 21l8 125q33 -6 58 13l14 41q-16 29 -22.5 44t-34.5 15l-13 127q10 2 14.5 10t4.5 17l2 16q4 10 8 12q10 29 16.5 79t12.5 120q8 72 11 123t3 63q0 2 -6 62q-6 57 -55 88v110q10 16 63 17q14 2 25.5 2h19.5h21 q12 0 50 1t66 7q6 4 24.5 10t23.5 6l235 -6q2 -14 13.5 -25.5t25.5 -20.5t27.5 -15t19.5 -10q20 0 34.5 -1t26.5 -3q18 -2 58 0l29 -31q4 -23 19 -29t17 -16q4 -23 11.5 -37t27.5 -27q23 -12 27 -31.5t20 -37.5q2 -8 1 -22.5t-4 -28t-7 -25.5t-6 -14q-2 -6 -4 -12.5 t-6 -14.5q-4 -10 -11.5 -25.5t-17.5 -33.5q-37 -72 -61 -93q-2 -4 -19.5 -4t-38 -2t-37 -8t-16.5 -23q-14 -4 -11 -13t12 -19.5t17.5 -19.5t4.5 -11q28 -6 62 -6h18q45 2 73 2q12 -23 28.5 -34t49.5 -11l123 -150l-6 -200l-66 -82q-72 0 -129 -68l-55 -67 q-23 -10 -59.5 -13.5t-120.5 -3.5q-55 0 -107.5 2t-94.5 2t-67.5 -1t-25.5 -7q-33 6 -49.5 4t-28.5 2l-207 -39zM465 270l27 -39l272 -22q27 6 46 12t37.5 17.5t40 32t52.5 55.5l39 125l-51 151l-285 100l-111 3q-29 -10 -41 -40t-12 -61q2 -61 8 -55q2 -8 -7 -38t-11 -83 q-2 -27 -2 -47.5v-34.5v-33zM487 1073l27 -74v-129l31 -32h51q23 2 42 -1t24 -3q23 0 31.5 9t11.5 9q6 0 22 -10l41 26q-4 18 0 37q2 16 6 33.5t17 34.5q20 31 27 46t13 36q-6 31 -17 50t-23.5 32.5t-21.5 23.5t-11 23q-16 18 -24.5 40.5t-14.5 22.5l-80 17l-84 -19l-41 -49 l2 -76z" />
<glyph unicode="C" horiz-adv-x="1239" d="M125 408l18 167q6 43 10.5 89.5t6.5 85t3 67.5t1 35q16 8 47 40t55 89q40 83 40 152q0 19 -3 36q10 4 57.5 14.5t96.5 30.5q49 18 75.5 28.5t30.5 12.5q2 2 17.5 6.5t35 7.5t38 6t26.5 3l63 61l185 2l45 -28l-12 -66l-46 -35l-139 2l-114 -38q-6 0 -41 -66 q-14 -33 -34 -72t-28 -49l-47 -307q-4 0 -29 -70q-10 -35 -20 -56t-17 -34q0 -14 39 -78l50 29l45 -88l-27 -51q6 -10 10 -17.5t8 -13.5l7 -12q0 -6 24 -33q23 -29 37 -29q23 0 34 8.5t17 8.5t14.5 -7.5t14.5 -9.5q17 -2 34 -2q75 0 134 45q23 4 59.5 8.5t61.5 30.5 q8 2 20 12.5t26.5 23.5t31 27.5t34.5 24.5q10 6 17.5 -10t15.5 -12l21 -25l-35 -104l-78 -62l-111 -30q-51 -16 -109.5 -35t-84.5 -23q-23 -2 -49.5 -9t-51 -14t-43 -12.5t-22.5 -5.5q-78 0 -113 -1t-51 -1l-184 135q-4 39 -62 123q-55 76 -55 95z" />
<glyph unicode="D" horiz-adv-x="1351" d="M139 451v16q0 8 1 17.5t3 19.5q2 47 7 63q2 6 10 17.5t8 23.5q0 92 9 197.5t11 198.5q2 72 2 114.5t3 52.5q2 27 1 59t-1 60q0 6 -3 8l54 43h178q29 4 41 2t16 -6l45 -32q18 -23 31.5 -26t23 6t17.5 24.5t16 29.5l109 -6l162 -67q8 -8 14 -15.5t12 -11.5 q10 -10 19.5 -18.5t13.5 -8.5t40 -10t65 -57q23 0 46 -14.5t39.5 -32t25.5 -32.5t5 -17q-25 -24 -25 -43q0 -6 4 -14q14 -24 40 -36q8 -35 32.5 -48t36.5 -19q0 -6 4.5 -62.5t12.5 -162.5q4 -53 8 -93.5t8 -66.5q4 -16 6 -30l4 -24q0 -12 -69 -116q-74 -102 -74 -137h-109 q-8 0 -20 -7.5t-25 -15.5l-32 -20q-6 -2 -12.5 -2t-14.5 -2q-12 -2 -31.5 -4.5t-44.5 -6.5q-51 -10 -86 -12t-57 2q-1 10 -22 10q-33 0 -117 -26q-35 -10 -72 -17.5t-68 -11.5q-18 -4 -35.5 -6t-33.5 -4l-45 10q-12 -2 -24.5 -5t-16.5 -3q-6 0 -17.5 4t-19.5 4 q-4 0 -17.5 -1t-17.5 -5l-61 47v49q0 23 -5 43q6 11 6 47q0 26 -3 64q-4 49 -7.5 79.5t-3.5 43.5zM457 473q0 -25 6 -88q2 -33 3 -56.5t1 -33.5q4 -16 7 -32.5t7 -35.5l68 -24q20 8 43.5 23.5t40.5 9.5h57q4 0 18.5 11t20.5 11q8 0 8 -7t23 -7q8 0 38.5 9t65.5 26 q37 16 58.5 24t25.5 10q2 4 3 10.5t5 14.5l9.5 28.5t15.5 39.5q14 49 22.5 75.5t8.5 36.5l-66 242q0 14 2 22q0 10 1 25.5t3 38.5q8 88 11 88q-2 2 -13.5 22.5t-31.5 55.5q-20 37 -34 76.5t-22 39.5l-162 105h-153q0 -25 -10.5 -28t-10.5 -7v-37v-38.5t-2 -51.5v-135 q-35 -18 -39 -43q0 -18 -18 -57q-4 -4 -4 -15q0 -29 1 -40t-5 -38q-1 -1 -1 -6q0 -15 9 -65q12 -72 14 -74q-2 -10 -5 -28.5t-9 -43.5t-8 -37t-2 -16z" />
<glyph unicode="E" horiz-adv-x="1167" d="M131 164q4 20 15.5 41.5t7.5 44.5q-2 8 -9.5 26.5t-10.5 39t0 41t22 34.5q16 27 14 50.5t-18 50.5q12 14 15 33.5t1 38t-7 32.5t-9 20q6 29 12 77t11 98.5t7 93.5t0 63q-2 27 4.5 55.5t14.5 58.5t12 58.5t-2 53.5l4 12q1 1 1 3q0 11 -15 60l32 72h3q41 2 83.5 4t78.5 4 t59.5 3t25.5 1h283q14 0 37 -14q25 -12 164 -12q2 -8 4 -16.5t4 -16.5q6 -37 14 -57l-12 -21q-31 -2 -47.5 -2t-23.5 1t-9 2t-4 1l-160 21q-18 4 -39 4q-47 0 -108 -19q-26 -7 -46 -7q-10 0 -18 2q-24 5 -33 1q-25 8 -41 0t-10 -31q6 -20 14.5 -24t12.5 -17q-4 -6 3 -17 t17 -21q12 -12 24.5 -15.5t12.5 -5.5q0 -4 -10 -42t-16 -91q-4 -34 -5 -72q-1 -20 1 -42q4 -62 30 -115q-10 -23 -18 -85.5t-13.5 -128t-7.5 -117.5t-2 -57q-2 0 -5 -7t-7 -15t-10 -13t-15 -1v-19h13h8q-2 -10 -2 -28.5t-2 -30.5l155 20q27 -3 61 -3q17 0 35 1q54 2 122 15 q49 7 84 8q14 0 26 -2q8 -1 15 -1q32 0 49 15l51 2l39 -43q-4 -12 -5 -28.5t3 -22.5q-4 -4 -24.5 -10t-57.5 -21q-24 -6 -47 -6q-14 0 -27 2q-15 3 -30 3q-20 0 -38 -5q-100 0 -206 -31q-29 -8 -49.5 -14t-34.5 -10q-8 -4 -15.5 -5t-13.5 -3l-160 -7q-18 -6 -38.5 -3 t-41 8.5t-37 11.5t-26.5 6t-35 -1t-45 -1q-20 14 -36.5 29.5t-2.5 54.5zM565 717l66 90q41 0 44 -1t1 1q0 2 12 5t29 5l31 6h10q28 0 123 -6q2 0 28 -10q10 -4 52.5 3t95.5 7l33 -43q0 -6 -3.5 -19.5t-7.5 -27.5t-7 -26.5t-3 -18.5q-72 -6 -93.5 -11t-25.5 -5h-137 q-31 0 -47 1t-25.5 1t-13.5 -1l-12 -3l-43 -27l-64 29q-2 10 -19.5 22t-23.5 29z" />
<glyph unicode="F" horiz-adv-x="1224" d="M164 258q0 86 17.5 136t15.5 61q-2 12 -3 28.5t-3.5 31.5t-7.5 26.5t-13 11.5l4 104q15 45 15 125q0 18 -1 37q-1 13 -1 26q1 35 5 67q6 44 17 79v70q18 -6 -2 39q-23 49 6 43q4 35 3 59.5t-3 65.5l39 53q20 -2 46 5t54 1q25 -4 58.5 -4t65.5 2t57.5 3t33.5 -1 q32 -5 53 -5q7 0 13 1q12 0 29 4q2 6 19 8t17 13l103 -21q6 0 18 6t25 15q14 8 28 22q29 0 57.5 -3t45.5 -7l4 -21q-2 -8 -2 -25.5t-2 -25.5l-23 -22q-14 -4 -28.5 -18.5t-22.5 -18.5l-219 -47q-6 0 -18.5 -3t-27.5 -2t-33.5 9t-37.5 31q-25 2 -42 -7.5t-22 -26t8 -39 t50 -44.5q6 -4 1 -10.5t-23 -40.5q-10 -23 -18.5 -37.5t-14.5 -26.5t-11.5 -25.5t-9.5 -31.5q-2 -12 -2 -41t4 -70q8 -47 19 -67q4 -10 12 -23q-20 -14 -32 -54q-6 -20 -5 -43q0 -25 6 -55q5 -15 5 -52v-13v-8q0 -45 10 -111q4 -22 4 -42q0 -13 -2 -25q-4 -30 -10.5 -58 t-12.5 -52t-4 -42q-20 -14 -6 -51l-47 -49h-113q-18 -4 -40.5 -5t-49.5 -4q-6 0 -11 -1t-9 -1l-31 43q0 25 -1 63t-3 91zM565 717l107 90q41 0 43 -2l2 2q0 2 12 5t29 5l30 6h10q28 0 124 -6q2 0 28 -10q10 -4 52 3t96 7l32 -43q0 -6 -3 -19.5t-7 -27.5t-7 -26.5t-3 -18.5 q-72 -6 -93.5 -11t-25.5 -5h-137q-47 0 -62.5 2t-23.5 -2l-12 -2l-43 -27l-64 29q0 6 -12 11t-27.5 11t-29 13.5t-15.5 15.5z" />
<glyph unicode="G" horiz-adv-x="1413" d="M41 549v11q0 37 11 82q14 52 20 99l37 25q29 18 41 36.5t-13 47.5q4 25 7 53.5t6.5 55t5.5 45t2 20.5l80 115q4 4 26.5 10t59.5 16q18 4 27 13.5t13.5 18.5t7.5 17.5t7 10.5l276 84q35 6 78 18t66 29l45 2l35 -25l16 -49q-6 -2 -14 -6q-14 -8 -35 -21.5t-40.5 -26.5 t-32.5 -22.5t-15 -9.5l-25 -12q-16 -10 -37 -19l-39 -20q-10 -4 -17 -8t-15 -9q-6 -16 -20.5 -36.5t-31 -41t-34 -37t-29.5 -26.5q2 -6 1 -14t-7 -17q-6 -10 -12.5 -43.5t-12.5 -85.5q-6 -16 -25.5 -25t-25.5 -26l-9 -40.5t11 -26.5q27 -6 31 -11q-4 -29 -7 -48t-6.5 -37.5 t-5.5 -38t-4 -48.5q-4 -59 -5 -93t1 -42l49 -164q18 -4 50 -9t77 -15q54 -10 76 -10q14 0 16 4q-2 14 99 39q102 23 102 36l43 -4l-26 -110q-4 -2 -9.5 -2t-9.5 -2q-10 -2 -21.5 -4t-27.5 -7q-33 -6 -51.5 -9t-22.5 -5q-49 -6 -78 -47q-35 -41 -36 -31q-20 -8 -48 6 q-11 10 -36 10q-20 0 -48 -6l-204 25l-197 135q11 9 11 32q0 45 -40 142q-16 39 -27.5 68t-19.5 47q-4 10 -7 19.5t-7 17.5zM735 614l72 80h59q4 0 21.5 -1t48.5 -3q8 -1 15 -1q45 0 50 22h238q33 0 67.5 -6.5t59.5 -10.5q0 -14 -6 -43.5t-8 -52.5q-14 -6 -42 -12t-36 -13 l-86 7l-19 -48q18 -12 35 -11t43 -3q2 -16 -4 -50t-15 -87t-18.5 -125t-11.5 -164l-192 -35l-13 62q2 10 3 56v35q0 40 -1 97q-2 43 -2 80v68v96q-47 -4 -93 -10t-64 -13l-33 -2l-27 23q2 2 2 4v2q-14 23 -26.5 37t-16.5 22z" />
<glyph unicode="H" horiz-adv-x="1730" d="M199 152q2 20 4 44.5t4 57.5q4 61 5 97t1 48v64q0 37 -14 37l14 114q25 66 31 164q4 55 13 120t24 101l8 105q14 -2 0 41q-12 47 14 47q4 25 7 44t3 36v11q0 25 6 71l27 12q27 -10 77 -16.5t93 -12.5q27 -4 47.5 -5t34.5 -3l29 -39l-6 -73q-6 -51 -6 -77t6 -26 q-27 -47 -38.5 -92t-21.5 -82q-8 -31 -8 -119q0 -23 6 -32t16 -13q12 -4 23 -2q-12 -12 -23 -35q-10 -20 -20 -50t-17.5 -61.5t-11.5 -61t0 -52.5q2 -20 8.5 -53t12.5 -72t10 -82t4 -82q-16 -12 -16 -35q0 -12 4 -26l2 -4l-66 -43l-84 -2h-84l-18 -2zM635 764l18 18h107 h33.5t46.5 -2l186 15q29 0 53.5 2t44.5 12q4 6 12.5 11t18.5 32l8 72q14 -4 0 43q-8 23 -9 36t13 13q4 18 12.5 50t17.5 70t17.5 77.5t14.5 74.5l129 51q23 2 49.5 6.5t54.5 8.5q27 4 46.5 7t35.5 7l43 -39v-104q-29 -27 -49 -56.5t-25 -62.5l-6 -41q-4 -35 -11 -74t-17 -53 l-6 -16l10 -35q2 -10 6 -6q2 2 6 0q-6 -14 -14 -33t-19 -43q-12 -20 -12 -31.5t14 -7.5q0 -4 -3 -61.5t-13 -174.5q-4 -57 -7 -84.5t-4 -39t-2 -13.5t-1 -8q-14 -31 -21 -57.5t-8 -36.5q-2 -6 3 -14.5t9 -16.5q8 -12 15 -18l8 -68l-51 -53l-265 -45h-2l-53 47q2 6 4 18.5 t4 28.5q4 29 5 39t-1 33v6q1 16 7 60q8 54 14 141q5 71 5 112q0 53 -9 53q-10 0 -4 39q-12 0 -28.5 -1t-21.5 -3q-41 -18 -76.5 -25.5t-56.5 -7.5q-14 0 -51 12q-32 10 -83 9h-19l-78 -4l-21 10z" />
<glyph unicode="I" horiz-adv-x="759" d="M172 106q2 8 23.5 23.5t21.5 32.5v35t-4 32q-1 2 -1 6q0 17 12 61q14 50 14 133v22q0 49 1 72.5t2 30.5t0 5t-5 -2q2 16 6 37.5t8 44.5q4 12 6 24.5t4 26.5q6 6 -1 24.5t-15 28.5q-6 10 -6 9.5t4 -0.5t12 9t16 38l-14 90q4 0 7 -2t3 3t-2 21.5t-8 51.5q-5 39 -5 60 q0 16 3 21q6 13 18 11q10 8 17.5 16t9.5 20.5t-1 34t-13 56.5q-10 31 2 61.5t14 61.5l43 43q29 0 76 1t82 3q74 6 106 6l21 -15v-159q-25 -96 -40.5 -169t-23.5 -134.5t-9 -116.5v-22q0 -45 3 -95q1 -25 1 -48q0 -46 -5 -85q-8 -59 -15.5 -108.5t-9.5 -93.5v-10 q0 -39 13 -79l10 -51l-35 -59l-272 -54z" />
<glyph unicode="J" horiz-adv-x="878" d="M41 20l14 13l131 16l50 25q25 10 36 26.5t25 34.5q31 39 57 78q25 36 25 95v9q-1 19 -1 37q0 44 7 78q2 27 6 49q0 10 2 34t5 50.5t4 52t-1 41.5q-4 33 -5 43.5t-1 16.5t11.5 24.5t19.5 32.5q1 3 1 10q0 19 -7 68q-4 35 -9 55.5t-3 28.5q4 4 13 10t11 13q-12 6 -12 188 q0 47 4 92t7 82t5 62.5t-2 31.5q23 10 27 22.5t2 35.5q12 4 43 8t80 6q88 6 137 24q8 -2 15 -2h12q10 -2 17 -2h9l17 -34q0 -6 -6.5 -62.5t-14.5 -138.5t-19.5 -177.5t-19.5 -177t-14 -140t-6 -64.5q0 -27 -6.5 -58.5t-6.5 -42.5q0 -68 4 -104q2 -13 2 -26q0 -20 -4 -38 q0 -6 -10 -39.5t-26 -127.5q-10 -47 -17.5 -70t-12.5 -32t-8 -10t-3 -3q-29 -43 -66 -78t-59 -57q-23 -25 -38.5 -40.5l-23.5 -23.5l-198 -43l-150 -6l-45 78z" />
<glyph unicode="K" horiz-adv-x="1447" d="M131 186q4 43 6 131q4 59 14.5 93t10.5 47q0 8 2 20t2 24.5t-5 20.5t-18 8l13 127q23 59 24 158q1 24 1 45.5t-1 42.5v13q0 33 8 61l7 90q39 -6 20 35q-6 23 -9 33t3 10q4 23 5 56.5t5 105.5l41 22q29 -12 81 -21.5t87 -13.5q41 -6 65.5 -9t32.5 -5l17 -37 q-8 -43 -13.5 -89t-8.5 -90t-7 -84t-10 -69q-5 -13 -5 -57q0 -22 1 -51q2 -10 2 -20.5v-18.5v-25q0 -14 -2 -20q-29 -16 -38 -54q-5 -23 -5 -49q0 -17 2 -36q4 -18 12 -29.5t16 -54.5q6 -23 7.5 -51.5t0.5 -57.5t-3.5 -56.5t-2.5 -47.5q-27 -20 -24.5 -46t6.5 -47 q-10 -6 -20 -10q-4 -2 -6.5 -2t-4.5 -2q-8 -4 -13 -6t-9 -4h-2l2 2q4 4 4 6q-6 -2 -49 -2h-125q-20 -2 -45 -4t-43 -6zM414 164l2 2zM541 717q14 18 24 22t22.5 8.5t30 19.5t50.5 58q18 27 33.5 46.5t25.5 33.5q6 8 12 15.5t11 11.5q20 16 76.5 71.5t144.5 153.5 q59 66 101 110t67 68l47 11q14 -16 25.5 -27.5t19.5 -24.5q16 8 28.5 -5t18.5 -27q0 -4 9 -10.5t17.5 -13.5t12.5 -16.5t-8 -19.5l-37 -37q-8 -8 -15.5 -15t-11.5 -15q-18 -14 -92 -48q-78 -35 -98 -57q-10 -14 -21.5 -34.5t-25 -42t-28.5 -40t-32 -26.5q-2 -2 -5 -4 t-15 -15q-2 2 -5 4t-8 7q-2 2 -4 3t-4 3q-4 -10 -14 -13q-4 -2 -14 -2q-25 -18 -26 -41.5t9 -40.5q2 -2 -17.5 -22.5t-33.5 -40.5l59 -31l101 -127l209 -205l153 -153l51 -29l-2 -37l-49 -43h-243l-105 27l8 98l-75 109l-105 139l-131 102l-66 13q-14 43 -34 74 q-4 8 -8.5 14t-8.5 10q-6 12 -14 19z" />
<glyph unicode="L" horiz-adv-x="1024" d="M160 133q2 10 3 19.5t3 19.5q12 86 12 117q0 6 -3 20.5t-5 20.5l18 456q-10 14 -4 38t19 30q7 30 23 66q12 29 13 65q0 9 -1 19q-2 23 4 38t10 19l16 16q16 16 19 29q2 14 -4.5 26.5t-15.5 19.5t-16 12t-7 7q4 12 4 20.5t-12 18.5l4 50q10 14 37.5 15t44.5 1q6 0 20 1 t33 1l37 2q10 2 17 2h13l23 10q14 8 22 8q6 0 23.5 -5t38.5 -17l-10 -199l-21 -174q0 -8 -10 -33.5t-21 -42.5q-4 -4 -4 -15t1 -24.5t2 -25.5t-1 -19l-14 -149q0 -4 -3 -7t-6 -14.5t-7 -32t-6 -57.5q-4 -78 -8.5 -108.5t-4.5 -34.5q0 -20 13.5 -28.5t13.5 -24.5 q-8 -8 5 -30.5t48 -29.5q12 -2 25 -2q25 -1 53 7q43 12 94 16q18 0 23.5 -4t10.5 -9.5t18.5 -10.5t50.5 -7q8 0 31.5 12.5t19.5 38.5q16 0 41.5 6.5t52.5 10.5t47.5 1t26.5 -22l8 -30q-2 -4 -2 -9.5t-2 -11.5q-2 -10 -6 -27.5t-9 -40.5q-43 -4 -47 -2t-8 2q-6 0 -19.5 -7 t-21.5 -11q-12 -2 -39.5 -6t-68.5 -8q-23 -4 -38.5 -5t-25.5 -4q-8 -2 -20 -2q-2 0 -14.5 -1t-28.5 -1h-62q-41 4 -58.5 6.5t-26.5 1.5t-16 -6.5t-30 -17.5q-8 -2 -31 -2h-88q-16 2 -25 3t-20 3l-80 -24q-29 4 -45 24t-26 43z" />
<glyph unicode="M" horiz-adv-x="1638" d="M121 94q0 33 8 74q6 41 10 71.5t4 47.5q0 4 -4 19.5t-6 21.5l14 309q6 0 8.5 14.5t2.5 30.5t-2 31.5t-4 19.5q-2 2 3 16.5t13 30.5l14 31q4 8 7.5 11t5.5 5q4 12 2 20.5t-5.5 19t-5.5 28.5t2 53q8 70 13.5 116t5.5 58v47q-4 18 -3 36t-18 28l2 27q8 18 64 18h108 q12 0 32 12.5t44 14.5q10 4 24.5 11t20.5 7q8 0 21.5 -4t27.5 -16v-43l111 -220l33 -172l69 -112l66 -144l31 -8l67 62q4 10 9.5 22t13.5 23q12 20 29.5 44.5t41.5 53.5q87 94 87 136q0 5 -1 9l89 144q35 -14 58 7t34 99q0 4 -2 13.5t-6 17.5q27 12 30.5 24.5t3.5 36.5 q25 10 44.5 13.5t41.5 9.5l140 -84q-2 -18 -4.5 -38.5t-6.5 -43.5q-4 -29 -8 -60.5t-7 -61.5t-6 -54.5t-5 -38.5q-4 -20 -8.5 -70.5t-10.5 -136.5q-1 -19 -1 -35q0 -137 44 -161q0 -14 -1 -63.5t-3 -141.5q-2 -45 -2 -80v-62v-63q-55 -14 -115.5 -26.5t-95.5 -12.5 q-14 0 -28.5 10t-18.5 33q14 12 15.5 12t-9.5 11v241l15 33h-15v94q0 23 -2 62t-6 98q-6 59 -8 91t-2 36q0 6 11 27.5t22 35.5q4 10 3 21.5t1 19.5q0 8 9 15.5t13 11.5q-4 12 -9 26.5t-5 18.5q-28 13 -45 13q-25 0 -25 -29q0 -19 11 -52l-48 -102l-141 -209l-127 -244 l-41 -18l-92 55l-35 76l-133 137l-14 31l-76 98l-12 37l-4 -14q-2 -8 -1 -37t-12 -41q-6 -8 -14 -31.5t-10 -31.5l-6 -72q2 -4 5 -6t5 -10.5t2 -26t-6 -49.5q-10 -50 -10 -82q0 -8 1 -15q3 -34 3 -38q0 -8 3 -32q1 -7 1 -14q0 -21 -6 -51q-7 -52 -7 -90q0 -19 2 -35l-22 -12 q-8 2 -24.5 2t-36 -1t-40 -2t-34.5 -1h-27l-86 -20z" />
<glyph unicode="N" horiz-adv-x="1378" d="M137 102q12 16 14.5 15.5t-6.5 -0.5v225l27 45l-31 76l4 57q0 10 4.5 34t8.5 52.5t7 58t1 54.5q-4 47 -6 72.5t-2 29.5q0 8 11 29.5t19 36.5q6 10 4 21.5t1 19.5q4 8 10 13t2 -5q12 -6 5 31t-9 90l-2 108q-2 10 -3 18.5t-12 24.5q29 14 33 26.5t4 37.5q16 6 52 9t77 6 t80 8t64 14l43 -33q0 -10 -1 -14.5t-4 -8.5q4 -10 4.5 -17t-0.5 -13t-1 -15.5t4 -23.5q10 -29 20 -38t25 -20q-20 -18 -20.5 -31.5t7.5 -21.5t25 -14q4 -4 18.5 -15.5t28.5 -7.5l135 -221l234 -299q26 -2 28 28q1 10 0 20q0 21 -3 45q-5 36 -13 64.5t-8 24.5q-6 59 -12 92 q-2 12 -3 25q0 22 7 47q10 10 4 42t-17 65q-4 18 -4 40.5t2 45t3 41t-1 28.5q0 20 -4 39t2 35q2 8 3 11t1 7.5t-1 12.5t-1 24l29 29q6 8 20.5 12t30 5t28.5 1t19 -2q14 -4 34 -5t34 1l37 -10l22 -100q-29 -31 -33 -59.5t-2 -57.5q0 -49 3.5 -72.5t8.5 -34t10 -12.5t9 -6 q-4 -16 -13 -31.5t-22 -31.5q-6 -8 -5 -19.5t7.5 -22t14.5 -17.5t16 -5q4 -5 0 -33q-1 -7 -1 -18q0 -32 9 -96q2 -19 1 -36q0 -21 -2 -37q-5 -30 -11 -51.5t-11 -39t-3 -35.5q2 0 4 -18.5t4 -40t5 -39t7 -15.5q-1 -27 -1 -51q0 -43 4 -78q7 -55 1 -61l8 -27l-83 -30h-24.5 t-23.5 -3q-20 -2 -40.5 -4t-32.5 -4l-41 23q2 20 8 29q14 8 10 61q-2 18 -9 22.5t-13 14.5l-289 385q-6 6 -10 12q-8 10 -17 37q-8 27 -23.5 56.5t-50.5 52.5l-12 114q-4 20 -31 20q-14 0 -34 -5q-10 -8 -12.5 -16.5t-1.5 -16.5t3 -16.5t0 -14.5q-2 -8 -4 -13t-3 -15.5 t-3 -30t-4 -56.5t-5 -74.5t-4 -71.5t4 -58.5t17 -32.5q0 -25 -18 -203q-6 -66 -9 -110t-5 -70l-27 -33q-27 -4 -69 -8l-84 -8t-77.5 -6.5t-50.5 -2.5q-12 0 -26.5 8.5t-24.5 30.5z" />
<glyph unicode="O" horiz-adv-x="1320" d="M96 571.5q0 30.5 2 67.5q8 6 27.5 38t40 71.5t39 82.5t28.5 72q8 31 14.5 48.5t11.5 29.5t9 24.5t8 30.5l54 54q0 2 23.5 29.5t55 61t66.5 62.5t57 31l101 10l41 -4q8 -2 15 -2h13h15l69 -64q2 -23 11.5 -37t40.5 -22q33 -8 34 -8q2 -2 0 -4q39 0 82 21.5t84 21.5 q10 0 22.5 -10.5t24.5 -24.5l25 -27q12 -14 23 -16q-4 -39 3 -56.5t18 -24.5t22.5 -11.5t15.5 -16.5q7 -40 7 -79v-10q-1 -44 -2 -85v-20q0 -31 2 -59q3 -38 20 -70q-6 -10 -23.5 -41t-26.5 -64q-8 -31 2.5 -47t8.5 -20q-2 -6 -4 -13.5t-7 -17.5q-6 -16 -19 -40.5t-36 -57.5 t-30 -56.5t-8 -42t-1 -33t-8 -26.5q-4 -4 -18.5 -5t-35 -5t-44 -13.5t-43.5 -27.5q-39 -8 -60.5 -21.5t-64.5 -17.5q-47 -10 -63.5 -25.5t-22.5 -15.5q-59 0 -92 -3t-43 -7l-21 -4q-6 -2 -27 -2l-286 88l-146 164q0 63 -1 107t-2 78t-1 64.5zM391 462q-4 -34 6 -61 q8 -20 35 -64t92 -93q41 -27 55.5 -54.5t24.5 -27.5t32.5 1t33.5 -9l178 223q12 8 20.5 11t15.5 11.5t14 27.5t17 60q12 41 20.5 69t12.5 47.5t6 35.5t2 35q0 35 4 79q1 11 2 23q0 34 -10 70q-10 35 -13 78t-7 73q-20 12 -24.5 39t-26.5 51q-12 10 -25.5 12.5t-25 0.5 t-20.5 -6t-13 -4q-6 0 -24.5 3t-42 2t-47.5 -8.5t-38 -27.5q-63 -72 -74 -90q-29 -53 -50 -102.5t-38 -73.5q-8 -20 -33.5 -61.5t-25.5 -117.5q2 -6 -6 -29.5t-15.5 -56t-11.5 -66.5z" />
<glyph unicode="P" horiz-adv-x="1165" d="M125 211q7 7 17 33q7 17 7 44q0 12 -2 27q-2 18 -2 33q1 25 5 43q6 29 6 45q0 6 -5.5 34t-3.5 44q2 6 10.5 16.5t8.5 26.5q-2 66 -2 104.5t-8 79.5q-2 8 3 17.5t5 25.5t13 77q7 32 7 76q0 41 -6 93q-10 106 -16 166q-4 45 -4 63v9q4 23 2 35t-2 36l28 64q16 4 37 9t43 11 q41 8 57.5 15.5t36.5 9.5q23 4 38.5 5t43.5 1q2 -8 7.5 -17.5t5.5 -19.5q23 -49 43 -55t36.5 6t27.5 30.5t16 18.5h167l181 -125q16 -10 34.5 -26.5t40.5 -38.5q41 -43 57 -43h1l-12 -99q0 -2 6 -4t13 -11t12 -27.5t1 -53.5q-3 -36 -3 -67.5t3 -59.5q6 -55 6 -90 q0 -2 -43 -22q-43 -16 -43 -62q-10 2 -54 -1t-89 -23l-88 -35h-125q-39 0 -67.5 -9.5t-47.5 -19.5q-18 -10 -28.5 -19.5t-44.5 -9.5q4 -23 8 -30q-6 -18 -17.5 -46t-11.5 -38q0 -12 1 -35t3 -57v-7q0 -32 -16 -54q-18 -24 -19 -38q6 -27 11.5 -58.5t11.5 -62.5l-31 -59 q-4 -2 -7 -2t-7 -2q-45 -14 -70 -14q-4 0 -15 1t-25.5 3t-27 3t-16.5 1t-17 -10.5t-30 -18.5l-49 21q-3 26 -3 58v16v15q0 31 -3 54zM436 719q0 -2 3 -12.5t5 -30.5l80 22q0 -7 9 -7q18 0 71 28q41 23 63.5 33t26.5 10h51q0 10 41 51q43 39 43 53l-26 187l-17 63l-176 197 h-78l-40 8l-17 -8q-4 -12 -3 -142q1 -68 0.5 -106t-0.5 -47q-29 -17 -30 -57q0 -16 4 -35q9 -32 9 -58q0 -29 -11 -49q-6 -6 -6 -18q0 -29 1 -42.5t-3 -39.5z" />
<glyph unicode="Q" horiz-adv-x="1380" d="M123 579.5q0 30.5 2 67.5q8 6 27.5 38t40 72t39 83t28.5 71q8 31 14.5 48.5t11.5 29.5t9 24.5t8 30.5l53 54q0 2 23.5 29.5t55.5 61.5t67 62.5t57 30.5l100 10l41 -4q8 -2 15.5 -2h13.5h14l70 -63q2 -23 11.5 -37.5t39.5 -22.5q33 -8 35 -8q2 -2 0 -4q39 0 82 21.5 t84 21.5q10 0 22.5 -10t24.5 -25l25 -26q12 -14 22 -17q-4 -39 3 -56.5t18.5 -24.5t23 -11t15.5 -16q7 -40 7 -80v-10q-1 -44 -2 -84v-21q0 -29 2 -58q3 -38 19 -71q-6 -10 -3 -41t-5 -63q-8 -31 2 -47.5t8 -20.5q8 -2 10 -10t-5 -26.5t-29 -51.5q-23 -31 -30 -54.5 t-9 -41.5q0 -10 18.5 -26.5t43 -33t47 -31t28.5 -18.5q18 -12 33.5 -31.5t18.5 -36t-9 -28.5t-45 -12q-6 0 -35 -8.5t-62.5 -18.5t-62.5 -19.5t-37 -13.5q-6 -2 -24.5 18.5t-40 45t-40 44t-24.5 15.5q-39 -8 -60.5 -21.5t-64.5 -17.5q-47 -10 -83.5 -25.5t-43.5 -15.5 q-59 0 -92 -3t-43 -7l-20 -4q-6 -2 -27 -2l-287 88l-145 164q0 63 -1 107t-2 78t-1 64.5zM410 623q2 -6 2 -30t1 -55.5t4 -66.5t13 -61q8 -20 31.5 -64.5t89.5 -93.5q41 -27 55.5 -54.5t24.5 -27.5t32.5 1t32.5 -9l187 151q6 4 -10.5 21.5t-37 39t-37 42t-10.5 33.5 q10 16 15.5 26t13.5 35q2 4 27.5 1t56.5 -8t55.5 -9.5t26.5 2.5q12 41 13 68.5t-2 47t-7 36t-4 34.5q0 35 4 79q1 11 1 22q0 34 -9 71q-10 35 -13 78t-8 74q-20 12 -24 38.5t-27 51.5q-12 10 -25.5 12t-24.5 0t-20.5 -6t-13.5 -4q-6 0 -24.5 3t-42 2t-47 -8.5t-37.5 -27.5 q-63 -72 -74 -90q-29 -53 -60.5 -102.5t-48.5 -73.5q-4 -10 -17 -24.5t-26.5 -36t-24.5 -50t-11 -67.5z" />
<glyph unicode="R" horiz-adv-x="1390" d="M121 96q0 10 1 18.5t3 18.5q4 29 7 54.5t-1 48.5q9 9 9 40q0 24 -5 60q-12 86 -12 108q0 6 4 33t8 47q2 6 9.5 16.5t7.5 22.5q-1 18 -1 34q0 36 6 62.5t6 53.5q0 12 -1 24q-2 10 2 20.5t4 26.5v68v64.5t2 82.5q2 92 3 123t5 43q2 20 11.5 32.5t9.5 41.5q0 2 -7.5 12.5 t-17.5 26.5q-6 8 -8 20.5t-2 22.5q2 12 3 20.5t1 47.5q55 16 112.5 16t92.5 4q12 2 19 4t13.5 3t15.5 2t28 1q8 -20 22 -44.5t23 -45.5q26 -35 49 -35h2q24 2 45.5 18.5t36 36t18.5 19.5l232 -2l176 -121q10 -10 26.5 -23.5t34.5 -35.5q39 -41 60 -41h2l49 -72 q-4 -6 -17.5 -35.5t-38.5 -83.5q-47 -111 -47 -172l-41 -24q-41 -16 -41 -84h-9q-35 0 -105 -27q-23 -10 -49.5 -13t-49.5 -5q-14 -2 -27.5 -2h-27.5l-22 -52q-25 18 -55.5 24.5t-60.5 4.5t-56.5 -8t-45.5 -14q-68 -25 -69 -25h-12q2 -2 2 -6q-4 -20 -13.5 -48t-9.5 -38 q0 -12 2 -33.5t4 -56.5q2 -33 3 -55.5t1 -34.5l9 -56q4 -16 6 -31.5t6 -31.5l-33 -74l-25 -8q-29 -10 -66.5 -13t-47.5 -3q-6 0 -27.5 3t-32.5 3q-6 0 -16 -11zM434 780q0 -23 1 -33t1 -24l39 -27l39 11q0 -22 27 -22q28 0 84 24q109 45 123 45h86q16 23 38.5 48t22.5 32 l27 149l-13 51l-272 195h-90l-43 -39q0 -16 1 -39t3 -51q7 -91 7 -129q0 -15 -1 -23q-41 -25 -49 -74q-6 -27 -12.5 -50t-14.5 -40zM782 506l27 39l98 -49q2 -2 21.5 0t42 3t44 -1t27.5 -13q8 -10 20.5 -14t26 -7l22.5 -5t11 -8l41 -76q8 -10 29.5 -34t58.5 -65 q74 -86 76 -88l-6 -71l-164 -47l-59 18q-4 18 -25 25q-8 8 -6 22.5t-4 18.5q-2 4 -4 4t-6 2q-2 4 -13 14q-6 8 -14 17.5t-18 25.5q-23 29 -35 46.5t-19 21.5q-8 4 -24.5 16t-22.5 14q-6 6 -10 14.5t-8 12.5t-10.5 28.5t-12.5 43.5q-23 20 -67 73q-14 14 -17 19z" />
<glyph unicode="S" horiz-adv-x="1110" d="M111 154l12 51l59 33l234 34l223 66l53 86l-22 88l-54 66q-23 14 -46 27t-46.5 20.5t-47 6.5t-46.5 -16l-51 -36l-170 79l-62 158l54 264l94 125q6 -14 24.5 -10t37 16.5t30.5 30t6 31.5q35 10 80 21.5t78 33.5l264 55l43 5l37 -43l-33 -89l-76 -20l-98 -10l-149 -76 l-70 -90q-32 -30 -32 -65q0 -36 18 -78q23 -47 34 -60.5t29 -23.5l121 -41q20 -16 37.5 -25.5t40.5 -11.5t64.5 -4t107.5 -7q18 -35 42.5 -60.5t47.5 -66.5l41 -92l-62 -204l-49 -54l-100 -145h-51q-27 0 -65 -1t-89 -1t-90 -10.5t-69.5 -21.5t-53 -19.5t-41.5 -6.5l-74 23 l-122 -20z" />
<glyph unicode="T" horiz-adv-x="1069" d="M-8 1159l24 60q29 4 46.5 4t26.5 -1t13 -3t9 -2q23 10 47 19t58 17.5t80 15.5t112 15l186 8l20 -16q10 -6 22.5 -11t25.5 -5q14 -2 26 10q4 4 8 12q16 4 54 1t116 -15q135 -23 178 -25l13 -20v-68l-39 -31q-20 0 -47 1t-62 3q-59 2 -108 3.5t-66 5.5v-156 q-29 -23 -41 -90q-16 -203 -20 -325q-3 -81 -3 -138q0 -28 1 -51q2 -41 4 -68.5t6 -44.5l23 -108l-11 -17l-248 -55h-6q-4 0 -9 -1t-9 -1l-68 47q0 2 2 3t4 6t4.5 18.5t2.5 38.5q0 20 1 28t-3 27q-2 12 -2 40t2 70v10q0 76 -29 76q4 23 5 53.5t3 57.5q2 16 2 31.5v32.5 q2 2 3 4t3 4l2 2q10 16 10.5 25.5t8.5 43.5v88h6q19 0 19 23q0 16 -9 43q-11 47 -11 66q0 12 5 12q6 27 12 61q4 29 8.5 63t8.5 68l-9 6q-14 -12 -33.5 -8t-35.5 6q-47 -6 -80 -10t-53 -14q-12 -4 -22.5 -6t-10.5 -29l-117 -25l-37 27q-8 20 -14 39.5t-8 48.5z" />
<glyph unicode="U" horiz-adv-x="1419" d="M168 582l12 120q10 30 16 82q4 38 4 78q0 14 -1 29q-1 26 -1 45.5t1 31.5q2 24 12 56l16 55q20 12 27.5 29.5t6.5 35t-9 31t-19 17.5q-16 4 -15 23.5t5 19.5q4 23 0 35q-2 4 -2 73l45 19q25 0 51.5 10t57.5 8q16 0 42.5 -4t54.5 -9t51.5 -9t35.5 -6l27 -25 q-6 -23 -8.5 -37t-2.5 -24q0 -8 5 -21l8 -115l-4 -12q-4 -6 -8.5 -15t-8.5 -22q-10 -25 -17 -44t-9 -38q-2 -10 -1 -41.5t7 -83.5q2 -25 3 -46t1 -37v-35q-25 -14 -23 -51t11 -82q2 -8 -3.5 -23.5t-11.5 -38t-10 -51.5q-2 -14 -2 -31t2 -35q4 -37 6 -66.5t4 -51.5 q2 -12 2 -24.5v-22.5l88 -33l258 -47l84 45q20 -2 38 24.5t26 53.5l57 296l-33 138l25 485l35 74l33 10l51 18l117 -36l16 -43q-29 -88 -51 -174q-14 -52 -14 -109q0 -38 6 -78q-4 -8 -9.5 -28.5t-6.5 -42t4 -41t22 -25.5l-29 -227l-51 -220l-88 -208q-10 -18 -54 -30.5 t-117 -20t-168 -9.5q-48 -1 -99.5 -1t-108.5 1l-72 47h-67q-25 0 -105 80q-20 20 -34.5 35.5t-24.5 26.5q-6 8 -18 20q0 10 -3.5 38t-13.5 71q-6 41 -20.5 58t-16.5 28q-2 8 1 29.5t4 43t-2 38t-17 16.5z" />
<glyph unicode="V" horiz-adv-x="1355" d="M53 1159l2 84q25 14 66 19q47 4 72 32l67 21q25 -20 49.5 -36.5t36.5 -31.5q33 -39 86 -63q2 -10 13.5 -47t26.5 -88.5t35.5 -111.5t40 -117.5t39 -105.5t34.5 -77q6 -12 14 -39t16 -54.5t15.5 -52t11.5 -32.5q14 0 24.5 -4t20.5 -8.5t22.5 -4t28.5 8.5q8 4 12.5 19 t7.5 33.5t6 38t11 31.5q25 37 42 63t30.5 43t21.5 28.5t13 23.5q27 20 29.5 36.5t17.5 45.5q10 20 22 54t14 40q6 18 21.5 42t31 51.5t28 59.5t12.5 66q2 45 3 79t5 59l63 14l72 -33q0 -33 21.5 -56.5t23.5 -41.5q0 -16 -24.5 -56t-36.5 -98q-2 -16 -24.5 -41.5t-25.5 -60.5 q0 -35 -14 -71t-20 -50q-18 -45 -54 -121t-90 -186q-53 -111 -88 -172.5t-41 -75.5l-16 -37l-17 -33l-79 -55l-134 -2l-40 -20l-74 84q-12 31 -36 67.5t-44 85.5l-47 121q18 43 19 67.5t-9 37t-28.5 15.5t-39.5 5q-12 2 -26 25.5t-29 31.5l-4 47l-53 86l-17 177q4 14 -3 22 t-19 12l-25 11q-14 6 -16 14q-16 33 -25.5 60.5t-15.5 50t-13 41t-20 30.5z" />
<glyph unicode="W" horiz-adv-x="1765" d="M47 1143v90q18 12 39 16q39 6 57 37l78 4q8 -8 29.5 -8t44 2t41 4t22.5 -4q37 -43 86 -67q-2 -12 14.5 -62.5t43 -121t59.5 -150.5t60.5 -155t47 -133t21.5 -83q76 -135 94 -143q8 -3 16 -3l46 22q27 25 27 87q0 10 -1 21t-1 22q-1 61 19 100q22 46 36 74 q-10 12 -14.5 27.5t-7.5 30t-7 23.5t-14 9q2 2 2 4t2 7q2 4 4 12t2 18q0 4 -12 70q-2 16 -4.5 39.5t-3.5 48.5t-2 44t-1 30q-16 29 -22 63.5t-33 63.5q-4 6 -4 20.5t2 28.5t6 37l74 10l14 14q12 12 39 17q14 0 43 2t58.5 2t53 -6.5t27.5 -20.5q2 -10 37 -12 q10 -53 22.5 -121t23 -136.5t15.5 -132.5q4 -45 4 -83q0 -15 -1 -29q10 -8 5 -16t-3 -31q8 -12 13 -31.5t5 -29.5q0 -8 -3 -27t-15 -51q-8 2 -21.5 -4.5t-24.5 -17.5t-18.5 -24.5t-3.5 -25.5q14 -23 46 -34t61 -7q23 -6 39 1t26 34l119 219l-4 76l147 352l78 109h105l20 -25 l19 -74l-101 -221l-78 -174l-98 -178l-153 -262l-72 -113v-41l-80 -57h-68l-61 65l-25 66q-2 4 -2 10t-2 14l-5 30t-7 44q-16 77 -27 77q-3 0 -6 -5q-41 -86 -82 -140.5t-57 -84.5l-14 -37l-43 -92l-217 -3l-27 -12l-76 39q-8 20 -17 47l-20 60q-4 10 -16 19t-23.5 18.5 t-17.5 19.5t0 22q8 12 1 25.5t-18.5 28t-20.5 26t-5 17.5q25 37 28 60.5t-6 41.5q-6 14 -14 18.5t-16 4.5t-15.5 1t-11.5 9q-10 20 -10 39.5t-4 21.5q-10 4 -22.5 5t-35.5 16q-39 174 -135 346q-33 66 -49 124t-43 83z" />
<glyph unicode="X" horiz-adv-x="1325" d="M123 1169l20 52l258 75l60 -20q0 -6 -4 -10q-10 -4 12 -31q10 -6 17.5 -12t15.5 -11q12 -10 24.5 -20t18.5 -16q2 -4 4 -7.5t3 -8.5t3 -17.5t4 -34.5q0 -12 17.5 -38t42 -56.5t49 -62t39.5 -54.5q45 -20 53 -33q18 31 37.5 65t35 64.5t25.5 56t10 42.5q0 33 15.5 45 t15.5 20q0 4 22.5 36t32.5 75l60 37h73q18 -4 45 -22.5t33 -39.5l-30 -61q-18 -41 -43 -83t-50 -89q-63 -129 -98 -164q-8 -18 -25.5 -48t-35.5 -83q55 -70 84.5 -132.5t46.5 -84.5q6 -6 23.5 -19.5t38 -29t41 -34t34.5 -36.5q29 -35 52.5 -67.5t45.5 -39.5q0 -23 3 -34 t5 -15q2 -2 25 -2v-45q-43 -29 -80 -56.5t-61 -45.5l-74 -19q-4 6 -27.5 22.5t-52.5 35t-53.5 35t-30.5 24.5q-23 33 -38 51.5t-23 28.5q-6 4 -19 16q-10 8 -24.5 20.5t-34.5 33.5q-23 18 -36 36.5t-24.5 38t-22.5 40t-30 40.5q-39 -63 -62.5 -113.5t-39.5 -74.5 q-35 -66 -45 -70q-6 -2 -27 0q-14 -16 -30.5 -45t-40.5 -70q-12 -23 -21.5 -40t-13.5 -27l-64 -6l-41 8l-61 76q18 43 28.5 76.5t34.5 44.5q43 43 101 159q14 31 21 51.5t12.5 35t10.5 25.5t15 23q61 -12 90 -12q14 0 22.5 21.5t9.5 49t-5 51.5t-17 28l-71 6 q-8 29 -25.5 70.5t-44.5 66.5q-12 12 -23.5 18.5t-19.5 11.5t-14 12t-11 24l-57 51q8 23 5 47t-23 37q-10 6 -18.5 8t-14.5 4h-12q-6 6 -20.5 40t-55.5 105z" />
<glyph unicode="Y" horiz-adv-x="1234" d="M70 1327q18 12 41 16q10 2 31.5 9.5t45 16.5t42 19.5t22.5 20.5l70 -2q18 -16 31.5 -28.5t23.5 -26.5q35 -43 84 -62q0 -33 13 -58.5t24 -43.5q14 -18 31.5 -25.5t29.5 -44.5q0 -4 -4 -16t-11 -25.5t-14.5 -25t-13.5 -11.5t1 -4t22.5 -10t35 -15.5t37.5 -21.5q0 -4 -3 -9 t0 -13.5t14.5 -20.5t42.5 -33q29 -23 30.5 -36t-4.5 -24t-8 -23.5t16 -30.5q12 -12 35 -13.5t44.5 4t39 15.5t19.5 22q8 27 15 50.5t15 40.5q27 23 36 39t20 44q12 27 19 49.5t11 24.5q14 41 38 87t38 98q10 35 19.5 63.5t13.5 46.5l82 2l88 -35q0 -31 -2 -54t-8 -44 q-4 -16 -21.5 -54t-27.5 -98q-2 -14 -14.5 -30.5t-28 -32.5t-32 -33.5t-26.5 -34.5q-39 -82 -67.5 -133t-40.5 -84l-13 -30l-10 -58v-65v-22.5t2 -26.5q0 -29 -5 -65t-12 -71.5t-12.5 -65.5t-5.5 -48l25 -121l-21 -57l-223 -52h-14q-8 0 -19.5 -1t-25.5 -1h-25l-65 60 q12 12 12 59q0 20 3 28.5t-5 28.5q-2 12 2 49t14 101q4 33 5 66.5t1 61.5t-3 45t-9 17q-4 4 -7 10.5t-7 12.5q-6 10 -16.5 26.5t-22.5 38.5q-23 39 -36 53.5t-24.5 21.5t-25.5 14.5t-39 31.5q-23 88 -77 166t-118 150q-43 47 -62.5 81.5t-47.5 57.5z" />
<glyph unicode="Z" horiz-adv-x="1161" d="M106 221q4 8 8.5 15.5t8.5 15.5q23 37 29 69.5t22 34.5q18 2 31.5 12.5t18.5 24t0 26.5t-25 21l174 217q20 -10 37.5 13.5t29 57.5t16.5 65.5t3 37.5q12 16 34.5 42t51.5 92q31 66 46 102.5t19 44.5q8 18 14.5 28.5t8.5 12.5l-31 41q-23 -2 -33 -16.5t-39 -18.5 q-14 -2 -24 -3t-19 -1q-6 -2 -14 -2q-14 0 -54 20.5t-87 32.5q2 -4 -3 -8t-10.5 -8t-9.5 -8t0 -11q-8 0 -14 3q-8 2 -18.5 4t-24.5 6q-29 10 -46.5 13t-21.5 3q-10 0 -14 10q0 2 -2 15.5t-5 32t-8 37t-12 28.5l29 53q35 0 78 -2t96 -6q82 -6 138 -10q37 -3 64 -3q14 0 25 1 q-2 -9 -2 -15q0 -23 21 -23q14 0 39 11q18 8 39.5 13.5t43 7.5t39 2t25.5 -2q25 -18 88 -21q33 -2 58.5 -8t48.5 -23q-4 -12 -6 -30.5t-3 -34.5t-1 -28.5v-14.5q8 -12 26 -23l-4 -8l-4 2q0 -35 1 -43t-17 -8l-2 -4l-111 -211q-84 -133 -134 -215t-79 -132t-43 -80t-29 -58 q-12 -27 -29.5 -43.5t-33 -25.5t-26.5 -13t-11 -6q-29 -12 -32 -30t9.5 -31t38 -18t56.5 7q12 0 20 4t16.5 10t19.5 13.5t32 13.5q43 10 53 4q10 -4 26.5 -5t45.5 1q37 1 56.5 1t22.5 -1q4 -4 13 -21q23 2 52.5 9.5t68.5 17.5q10 4 18 6l16 4l54 -61l2 -47l-33 -33 q-35 -4 -61 -19q-24 -10 -44 -10q-18 0 -32 8q-25 6 -42.5 8.5t-27.5 -1.5q-6 0 -29.5 -1t-52 -1t-56.5 -1.5t-42 -1.5q-18 -4 -22.5 -2t-7.5 6.5t-11 9.5t-33 9q-12 2 -26 2q-19 0 -41 -3q-40 -5 -82.5 -15.5t-84.5 -26.5t-69 -35l-20 8q-23 2 -25 -6q-6 0 -9 -1t-7 -1h-7 q-25 12 -28 17q-4 4 -2 6l-35 4z" />
<glyph unicode="[" horiz-adv-x="819" d="M199 -258q0 33 12 43q4 2 7 17.5t5 35t3 39t1 31.5v38t-6 34q-2 12 -1 118.5t7 311.5q8 408 -10 407q2 16 3 31.5t1 30.5v30q10 10 13.5 14.5t1.5 2.5q-4 0 18 71v74q25 -4 -4 80q-18 86 10 82q0 6 4 22q4 10 7 27.5t10 40.5q18 92 18 172q8 0 15.5 21.5t13.5 39.5 q14 43 28 43h20.5t43 1.5t51.5 4.5t43 7q59 8 113 18l174 -31q4 -2 2 -31.5t-2 -72.5q-12 0 -19 -2q-25 -4 -51 -6q-66 -6 -84 -6v-156q-18 -18 -37 -96q-18 -78 -39 -107l-8 -20q20 -45 15 -41q-10 2 -5 -2q-10 -23 -5 -40.5t5 -70.5q4 -4 2 -237q0 -59 -1 -99.5t-3 -76 t-3 -72.5t-1 -88q0 -6 -9 -23.5t-34 -21.5q-10 -2 -13 -17.5t2 -34t18.5 -36t37.5 -23.5q-4 -86 -6 -143.5t-2 -63.5q-8 -14 2 -39l4 -12t6 -14l197 -39l18 -139h-184h-13t-18 2q-16 2 -36.5 4t-49.5 6q-31 2 -65.5 2t-65 -4t-51 -11.5t-20.5 -19.5h-33q-14 0 -28.5 -2 t-24.5 -4z" />
<glyph unicode="\" horiz-adv-x="1755" d="M18 778l5 135q10 2 6 3.5t4 3.5h47h55.5t77.5 2h47l-4 8t-4 10q-29 68 -42 129t-36 86v94q12 12 33 17q35 6 49 39l63 4q8 -8 25.5 -8.5t37 2t35 4.5t19.5 -4q33 -45 72 -72q-2 -10 4 -38t17.5 -70t27.5 -93t35 -106l278 4q-2 16 -3 35.5t-1 42.5v59q-16 29 -20 65.5 t-25 65.5q-4 6 -5 20.5t1 30.5q0 10 1 18.5t3 18.5l64 10q2 6 12 17q12 12 33 16q12 0 36.5 2t49 2t44 -6t21.5 -20q2 -10 33 -15q10 -76 24.5 -175t22.5 -191q20 -4 40 -6.5t42 -6.5q111 -16 111 21l45 4l80 231l65 113h86l19 -25l14 -75l-80 -226l4 2q33 4 43 16.5 t17 14.5q8 -16 42.5 -25.5t61.5 -23.5q-2 -14 -3 -26.5t-1 -22.5q-2 -20 -1 -39t5 -27q-16 2 -46 5t-48 1q-6 -2 -8 -10t-9 -8q2 0 -27.5 -4t-88.5 -8l-11 -29l-81 -186l-129 -271l-60 -116v-43l-69 -60h-58l-49 68l-20 67q-2 4 -2.5 10.5t-2.5 14.5q-2 12 -4 31.5t-6 46.5 q-8 49 -15 69.5t-13 4.5q-35 -86 -70 -143.5t-47 -90.5l-13 -37l-36 -96l-183 -2l-22 -12l-64 41q-4 20 -12 47.5t-16 60.5q-2 8 -15 21l-20 18q-25 25 -14 45q6 14 -0.5 28.5t-15.5 28t-17 24.5t-4 19q23 37 24.5 61.5t-6.5 43.5q-4 14 -11 18t-14.5 5t-13.5 2t-8 10 q-10 20 -9 40.5t-3 22.5q-8 4 -19.5 5t-29.5 16l-21 90q-8 41 -25 90q-111 -2 -177 -3t-66 1q14 14 10 22.5t-6 10.5l-10 -2q-6 -6 -12.5 -11.5t-10.5 -11.5q-4 2 -7 2t-7 2q-6 0 -10 4q-2 2 -5 2zM643 768q29 -92 49.5 -164.5t22.5 -101.5q63 -141 80 -148q25 -12 50 18.5 t21 112.5q-2 80 17.5 127t29.5 76q-14 20 -16 47t-10 39q-59 -2 -120.5 -3t-123.5 -3zM1112 504q12 -23 40 -35t50 -8q20 -6 32.5 1t22.5 36l99 227l-2 63q-41 -4 -87 -5t-100 -3v-8q8 -10 4 -18t-2 -31q6 -14 11.5 -33.5t5.5 -30.5q0 -8 -3 -27.5t-14 -53.5q-6 2 -17 -4.5 t-21.5 -17.5t-16.5 -25.5t-2 -26.5z" />
<glyph unicode="]" horiz-adv-x="864" d="M78 1546.5q-2 30.5 2 32.5l221 31q10 -2 35.5 -5t57.5 -6.5t62.5 -6.5t53.5 -5q43 -4 67.5 -6t30.5 -2q12 0 0 -43q-16 -41 0 -41v-139q0 -31 -2 -74t-8 -100q-8 -113 10 -111v-76q20 -70 19 -69q-2 2 1 -3.5t13 -15.5q2 -10 2 -30v-30t2 -32q-18 0 -6 -405 q8 -397 2 -430q-2 -23 -4 -34.5t-2 -37.5l-57 -144q-10 6 -37 9.5t-58.5 4.5t-63.5 -1t-54 -4q-23 -4 -40.5 -4t-27.5 -2q-8 -2 -23 -3h-182l17 144l198 39q31 0 49.5 19.5t20.5 44t-13.5 47t-50.5 28.5q0 86 -1 126t-1 58q-2 104 -3 213t-3 228q0 233 2 235q0 27 2 44.5 t3 28.5t1 19.5t-6 20.5q4 4 -2 2q-6 -4 8 39l-4 20q-25 27 -18 107q6 39 0 52t-17 24v157q-16 0 -104 6q-47 2 -68 7q-8 2 -22 2q0 41 -2 71.5z" />
<glyph unicode="^" horiz-adv-x="1179" d="M85 761.5q1 22.5 12.5 49.5t27.5 50.5t31 29.5q27 23 46 60.5t54 90.5q35 51 63.5 92.5t51.5 69.5q2 8 8 17q4 8 11 19t18 28q10 23 22 41t23 39q12 23 26.5 32t30.5 11t37.5 0t48.5 -2q29 2 59.5 6t65.5 10q43 -51 71.5 -85t49 -55.5t34 -36t25.5 -24.5q14 -14 38 -40.5 t54 -65.5q31 -37 57.5 -65t53.5 -46q0 -23 2 -39t8 -37q-41 -29 -71.5 -48t-65.5 -46q-27 -23 -50.5 -2t-42 54.5t-29.5 68.5t-15 41l-19 25q-10 12 -24.5 28.5t-32.5 38.5q-18 25 -32.5 35t-28 18.5t-31 20.5t-41.5 39q-57 -86 -83 -134.5t-40 -76.5q-14 -25 -23.5 -37 t-16.5 -17.5t-14.5 -5.5h-15.5q-10 -14 -28.5 -34.5t-40.5 -53.5q-23 -33 -41.5 -59.5t-28.5 -48.5l-197 20q-18 2 -17 24.5z" />
<glyph unicode="_" horiz-adv-x="1306" d="M33 -86l4 197q10 2 6 3t4 3h47t133 2l381 20q41 0 87 -4t102 -14q111 -16 110 20l174 21q8 2 30 2t30 2q33 4 43 16.5t16 14.5q8 -16 43 -26t62 -24q-2 -23 -3.5 -42t-1.5 -37q-2 -31 -1 -59.5t6 -37.5q-16 2 -46 5.5t-49 0.5q-6 -2 -8 -10t-8 -8q4 0 -135 -13.5 t-418 -17.5q-276 -8 -412.5 -21t-138.5 -11q14 14 10 22t-6 10l-10 -2q-6 -6 -12 -11t-11 -11q-4 2 -7 2t-7 2q-6 0 -10 4q-2 2 -4 2z" />
<glyph unicode="`" horiz-adv-x="593" d="M92 1413q12 25 27.5 38t-2.5 32q10 12 38.5 39.5t82.5 29.5q53 0 86.5 -7t46.5 14h4q10 0 21.5 -27t37.5 -80q8 -16 13.5 -27.5t9.5 -19.5l8 -16l-10 -46l32 -90l41 -123l-63 -40q-14 -4 -31.5 -3.5t-34 4t-28 7.5t-13.5 6q-2 4 -15 21.5t-15 33.5q0 6 -9.5 13.5 t-19.5 13.5t-19.5 12t-11.5 12q-2 10 -14 22.5t-12 18.5q-12 -6 -70 70q-59 76 -80 92z" />
<glyph unicode="a" horiz-adv-x="1146" d="M90 508l86 143l70 64q39 20 90 32.5t102 17.5q32 3 62 3q18 0 36 -1q48 -3 78 -13q0 -33 20.5 -43.5t80.5 -22.5q20 35 20 85t-18 106l-33 104q-16 6 -50 21.5t-56 25.5l-89 -14l-90 -19l-20 33l22 53l15 33l28 6l95 17l84 -29l92 14l178 -53l76 -115l26 -325l-6 -103 l45 -239l27 -13h63l27 -71l-29 -47l-286 -35l-60 96q0 27 -41 -2q-10 -6 -20 -20.5t-21 -28.5q-6 -8 -12 -16.5t-12 -18.5q-63 -47 -130 -61q-20 -4 -39 -5q-42 0 -75 23q-35 4 -47 16q-6 4 -17 15l-131 8l-55 27l-51 129l10 43zM371 492q-5 -25 -5 -47q0 -24 6 -43 q11 -37 38 -62l30 -64q37 -12 70 -18q18 -3 37 -3q15 0 31 2q36 5 76 22.5t94 52.5l4 104l-37 182q-29 10 -50.5 10.5t-41.5 -3.5q-25 -6 -58 -10.5t-66.5 -9.5t-61 -12t-40.5 -20z" />
<glyph unicode="b" horiz-adv-x="1269" d="M207 145q2 8 12 21q4 8 13.5 21.5t19.5 31.5l-4 35l37 250q-6 18 -6 55v20q2 52 7 142t10 224q4 96 4 218q0 49 -1 103q2 31 9 59.5t13.5 54t8.5 47t-4 39.5q-2 18 6 29.5t30 7.5l207 -8l49 -16l39 -101l-49 -86q-35 -28 -35 -56q0 -30 25 -69q-4 -31 -5 -49t0 -33.5 t4 -33t9 -43.5l-20 -84l-4 -99l28 -16l41 8q14 10 26.5 25.5t22 30t14.5 24.5t7 9q2 0 13 1.5t26.5 4.5t33 7.5t29.5 10.5q6 0 48 -5t96 -28q14 -4 28.5 -11t30.5 -16l57 -28q27 -12 45.5 -22.5t24.5 -10.5l35 -115q-8 -6 -13.5 -18t-8.5 -24.5t-1 -23t9 -12.5q4 -20 6 -28 t6 -12.5t11 -8.5t22 -16l-25 -191l-111 -184q-14 -12 -44.5 -29.5t-70.5 -34t-85 -27.5t-90 -11q-31 -12 -39.5 -17.5t-15.5 -4.5t-26.5 8.5t-70.5 17.5q-12 12 -21.5 18t-16.5 12.5t-13 16.5t-12 33q-20 20 -53 37.5t-56 11.5q-29 -41 -57 -65q-26 -23 -59 -23h-5 q-23 12 -48.5 14t-46 1t-33.5 0t-13 11zM553 297l51 -74q25 -12 39 -17t25.5 -5t21.5 4t23 10l65 21l84 81q35 10 54.5 34t21.5 65q8 35 18.5 64.5t14.5 58t1 58.5t-20 65l-26 67l-109 53q-29 6 -61.5 8.5t-61 -4t-49 -21.5t-22.5 -44l-39 -41q-10 -84 -13 -135 q-4 -53 -9 -102.5t-9 -63.5q-8 -29 0 -52.5t0 -29.5z" />
<glyph unicode="c" horiz-adv-x="1120" d="M156 190q-11 52 -11 105q0 66 17 132q31 120 92 245l229 166l58 98l65 25l45 36l312 -39l14 -40v-76l-12 -13l-187 39l-164 -75l-45 -105q-61 -123 -89 -222q-13 -45 -13 -84q0 -47 18 -85l60 -102l215 36l90 31h168l20 -72l-229 -65l-324 -68l-98 64h-168z" />
<glyph unicode="d" horiz-adv-x="1155" d="M115 401l14 170q16 10 25.5 14.5t15.5 8.5t11 11t14 26q6 2 9 12t2 22.5t-5 24.5t-13 19l70 106q6 0 22.5 11.5t39 26.5t50 29.5t58.5 20.5q57 16 88 17.5t37 3.5q12 -8 28.5 -12.5t32 -7.5t26.5 -4t13 -1t6.5 -12.5t10.5 -30.5t16 -36.5t25 -31.5l37 -12l32 12l8 101 l-10 82q10 27 13.5 46t2.5 39.5t-3.5 42t-2.5 50.5q29 33 34 63q1 4 1 8q0 27 -30 56l-2 88l55 94l49 8l186 -12q39 0 31 -43q-16 -33 -24.5 -85t-12.5 -114q-25 -182 -36 -318t-17 -230.5t-11 -149.5t-16 -76l17 -172l-8 -33q6 -16 13 -31.5t11 -25.5q8 -16 10 -22 q0 -10 -15 -22.5t-37.5 -25t-49.5 -23.5t-49 -20q-18 2 -27.5 6.5t-15.5 12.5t-11.5 22.5t-17.5 36.5q-20 8 -55 5t-58 -23q-8 -23 -15 -31t-14 -13t-17.5 -9t-24.5 -17q-53 -4 -87 -4t-59.5 5t-48 14.5t-51.5 25.5q-43 6 -72.5 18.5t-49 28t-34 32.5t-26.5 32zM371 477.5 q2 -28.5 8 -63.5q-1 -8 -1 -15q0 -31 14 -51q16 -24 48 -41l74 -80l61 -28q14 -6 23.5 -11.5t19 -6.5t24.5 1.5t42 10.5l59 67q-6 8 4.5 30.5t6.5 51.5q-2 14 -1 63.5t3 102.5l4 99q0 40 -39 81l-127 53l-119 -32l-55 -62q-20 -33 -31.5 -59.5t-15.5 -54t-2 -56z" />
<glyph unicode="e" horiz-adv-x="1038" d="M88 592l18 137q2 8 13 21q12 20 31 61q8 18 32.5 34.5t52 30t53 24.5t38.5 20h3q25 0 68 53q12 14 30.5 23.5t37.5 15.5q10 4 22.5 6t22.5 4l240 -31q20 -4 43 -12q16 -8 32.5 -20.5t26.5 -28.5q14 -35 41 -56.5t43 -29.5l76 -135l-17 -134l-34 -43q-10 1 -19 1 q-34 0 -61 -17q-12 -6 -24.5 -11t-25.5 -9q-6 -2 -12 -4.5t-10 -4.5l-285 -86q-35 8 -56 8q-36 0 -36 -22q0 -10 8 -25q6 -14 16.5 -42.5t16.5 -40.5q27 -10 55.5 -32t53.5 -26l36 4q14 0 40 2t51.5 7.5t47 13.5t29.5 20q6 10 18.5 15.5t24.5 9.5q8 2 15.5 3t17.5 3l23 -80 l-25 -47q-2 -4 -13 -9t-25.5 -13.5t-28 -15.5t-19.5 -13q-4 -4 -21.5 -4h-39t-44 -2t-34.5 -9q-29 -14 -44.5 -18t-25.5 -6q-10 -4 -14 2q-4 2 -14 2h-16.5t-20.5 2q-27 2 -43.5 3t-20.5 1l-196 96q-6 61 -58 62q-10 0 -24.5 17.5t-24.5 37.5q-8 10 -14 23.5t-13 29.5z M358 559q0 -29 11.5 -47t28 -22.5t34 7t29.5 42.5l196 63l17 12q6 4 12 9.5t10 7.5q14 4 33 16t14 31q0 35 -36.5 78t-96.5 61q-29 10 -55.5 10t-50 -3t-43 -7t-31.5 -4q-7 2 -14 2q-34 0 -39 -45q-30 -46 -30 -100q0 -55 11 -111z" />
<glyph unicode="f" horiz-adv-x="1021" d="M194 912q9 26 31 49l148 20l57 4q14 -16 24.5 -17t17.5 5t11 18.5t6 22.5q0 4 1.5 7t1.5 5v4q0 2 -2.5 18.5t-18.5 26.5q-6 4 -20.5 16.5t-14.5 14.5q6 16 7 36.5t1 43.5l29 55q4 6 12.5 18.5t24.5 28.5l33 31l127 72l229 -7l107 -81l-2 -33l-50 -45l-24 2l-45 55 q-27 18 -53.5 19.5t-50 -11t-44 -35t-37.5 -51.5v-8q0 -18 2 -25q2 -31 7 -34q0 -25 -11 -55q-10 -26 -10 -75v-18h166q22 -9 78 -9q18 0 41 1q16 0 27.5 1t21.5 1l16 -41l-30 -61l-62 -33h-51t-71 1t-74.5 1h-63.5l8 -84q0 -6 -6 -16.5t-14 -22.5t-16.5 -24.5t-10.5 -18.5 q-4 -8 3 -37t-3 -51q4 -10 3 -26.5t-4 -33t-6 -30.5t-3 -21q0 -6 1 -9t2 -7t4 -13.5t7 -29.5q2 -8 1 -26.5t-5 -67.5q-2 -20 -4 -25.5t-4 -9.5t-3 -13.5t-1 -37.5l-27 -96l6 -23l-34 -123q-29 -4 -55.5 -7t-53.5 -7q-43 -6 -83 -10.5t-56 -4.5t-14.5 37t12.5 82 q10 57 30 119q-2 8 -1 11t2 9.5t4.5 20.5t5.5 47q6 68 9 99.5t3 48.5q0 6 -1 20t-5 23l8 176q20 12 14 26.5t0 22.5q6 20 11.5 42.5t13.5 84.5l-43 8q-12 4 -25 2q-27 -2 -84 -35l-69 51q-18 16 -9 42z" />
<glyph unicode="g" horiz-adv-x="1198" d="M111 -168l10 41q49 25 84 69t39 109q2 35 2 57.5v37t-1 22.5t-1 18l16 93l31 26l10 105q-6 8 -17.5 25.5t-25.5 38t-27.5 39.5t-23.5 34l6 106l94 195l53 78l201 92l219 -88l51 24q6 0 13 2q6 2 16 3.5t27 5.5q31 4 53.5 22.5t42.5 48.5q16 -20 30.5 -36.5t26.5 -30.5 q8 -8 14.5 -15.5t12.5 -13.5v-106l-20 -21l-144 -31l19 -65l6 -94l35 -91l-23 -67q-20 -14 -57 -14h-48.5t-31.5 2l-58 -37q-6 -2 -22 -6q-10 -4 -25.5 -8.5t-35.5 -12.5q-41 -10 -75 -26.5t-63 -34.5q-14 -16 -34.5 -19.5t-18.5 -11.5q-10 -29 -16 -51.5t-6 -46.5v-51.5 t-5 -34.5l234 88q23 -4 35 -4h22q10 -2 22.5 5t35.5 17l47 -2l129 -39l20 -28q4 -18 17.5 -52.5t19.5 -66.5q4 -16 9 -38t14 -50q14 -57 24 -64l-18 -53l18 -51l-10 -39l-111 -84q-8 2 -14 4l-12 4q-10 4 -20.5 6t-16.5 2l-160 -74q-8 2 -17.5 3.5t-19.5 5.5q-18 4 -48 9 t-69 13t-89 16.5t-96 14.5t-84 8t-52 0l-92 19l-19 16zM254 -203l162 -18l207 -29q57 -5 94.5 -5t54.5 5q2 10 3 21.5t-1 21.5q0 20 -18.5 48t-18.5 55q0 10 6.5 11t1.5 11q-2 8 -3 28.5t-3 43t-5 43t-9 26.5q-12 -4 -40 -14t-59.5 -20.5t-60 -19.5t-41.5 -11 q-18 -37 -48 -46t-64 -26q6 -16 -11 -33q-14 -10 -75 -36q-63 -29 -72 -56zM377 641l82 -162l205 49q14 14 21 44q1 6 1 12q0 24 -22 47l-54 94l-61 123h-74l-4 -74q-8 1 -15 1q-40 0 -55 -50q-10 -31 -16 -50.5t-8 -33.5z" />
<glyph unicode="h" horiz-adv-x="1142" d="M176 29v14q0 25 5 57q7 40 7 64q25 0 11 49q-13 41 -13 68v10q2 33 10.5 56.5t2.5 33.5q-4 12 -10.5 27.5t-10.5 35.5l25 134q8 31 10 67.5t3 74.5t5 76t17 72l2 54q2 8 10 16t15 15.5t12.5 14.5t-1.5 17q4 23 -13 39t-38 18q8 14 13.5 50t8.5 81.5t4 94.5t1 90l43 22 q35 -2 66.5 -11t78.5 -19q25 -4 43.5 -7.5t32.5 -7.5l29 -39q0 -2 -1 -10l-2 -16t-2 -15.5t-3 -7.5q-12 2 -11 -37v-204q-12 -12 -20 -32t-14.5 -44.5t-11.5 -50t-9 -48.5q27 -24 49 -24q8 -1 16 3q28 12 37 40l121 -8h78l35 -13q49 -16 89 -34.5t73 -28.5l37 -90l-2 -25 q-2 -2 10 -50q9 -36 9 -100q0 -21 -1 -46q-4 -98 -6 -184.5t-2 -118.5q0 -2 5 -16.5t15 -31.5l-14 -22l-39 -19q-29 -2 -62.5 -10t-62.5 -8q-12 0 -20.5 9t-36.5 7l-29 25q4 27 2 44t-6 30.5t-8 24t-4 20.5q2 14 3 27.5t3 29.5q4 27 9 59.5t13 71.5q6 34 6 64q0 11 -1 21 q-1 16 -1 32q0 21 2 41l-71 145q-8 2 -16.5 4t-18.5 7q-33 8 -55.5 5t-42.5 -5q0 -6 -21.5 11t-36.5 34q-35 29 -50 11t-25 -46q2 -23 7 -31t11 -12q8 -2 14 0q-10 -8 -16 -29.5t-9 -47.5t-2 -53.5t5 -49.5q1 -7 1 -17q0 -23 -6 -59q-6 -33 -7 -79q0 -24 2 -52 q0 -31 -2.5 -65t-4.5 -65.5t-4 -57t-2 -40.5v-6q-39 -33 -80 -39q-14 0 -50 -3t-52 -3l-45 -4z" />
<glyph unicode="i" horiz-adv-x="720" d="M195 100q2 10 7 56.5t9 110t5 135.5v20q0 60 -5 113l12 38l19 91l6 71l12 25l2 18l12 56l11 112l184 72l72 -47l-9 -74l9 -31l-13 -32l7 -48l-11 -38l6 -13l-8 -92l-8 -194q0 -14 -4 -36t-6 -45.5t0 -47t12 -39.5q-2 -31 -6 -72t-14 -94q-16 -23 -34 -40.5t-65 -19.5 q-27 -2 -52.5 -4t-47.5 -6q-12 -2 -24.5 -4t-26.5 -6zM287 1323q4 16 5 31.5t3 31.5q0 14 1 24.5t1 19.5l10 22q6 2 16.5 2t24.5 2q43 2 55 10q0 2 11 9q6 6 10 8q2 0 14.5 -2t32.5 -8q35 -8 49 -9q18 0 20.5 2t12.5 0l18 -34l19 -105l-43 -72q-2 -2 -3 -4t-5 -4 q-10 -6 -25 -18l-6 -6l-62 -6q-12 4 -28.5 9t-38.5 13q-23 8 -39 15.5t-29 11.5l-10 10z" />
<glyph unicode="j" horiz-adv-x="757" d="M35 -221q16 6 28.5 9t24.5 7t24.5 11.5t26.5 21.5l68 47l59 125q4 23 14 64q5 20 5 43q0 27 -6 59q-4 29 -5 66v14q0 29 2 55q2 18 3.5 36.5t3.5 39.5q0 27 -3.5 38t-7.5 20t-7 20.5t-3 36.5v18t2 16q2 14 5 26.5t14 20.5q-8 23 -11.5 68t-5.5 117q-1 21 -1 39q0 46 4 73 q5 37 5 66q16 8 23 12q14 8 39 13l190 -37l41 -60l-16 -553q-2 -6 -6 -53t-10 -135q-4 -47 -6.5 -81t-4.5 -56q-2 -14 -2 -24.5v-20.5l-141 -158l-129 -62l-152 -51l-45 13zM240 1279.5q0 29.5 34 51.5q16 10 18.5 24.5t-1.5 30.5q-4 18 -12 37q6 2 17 4.5t23.5 3.5t22.5 3 t14 6l13 8q4 2 7 4t7 6q2 0 15.5 -2t41.5 -10q29 -4 42.5 -6t15.5 -2q12 0 17 1t7 1h6q11 0 19 -2q-10 -6 -1 -11.5t5 -5.5l37 -143l-33 -70l-80 -67q-6 -12 -37.5 -10t-79.5 4q-25 0 -43 11t-30.5 24.5t-19.5 26.5t-9 20q-16 33 -16 62.5z" />
<glyph unicode="k" horiz-adv-x="1206" d="M166 96v4l33 123l6 139l14 263l25 176q-2 10 -4 38.5t-7 71.5q-2 45 -3 74t-1 45q0 -4 14.5 11.5t25 39t8 52t-34.5 53.5l20 170q14 8 2 49l41 41l27 4q16 -4 33.5 -5t40.5 -5q18 -4 33.5 -5t27.5 -8l41 -22v-39q4 -10 8 -31.5t6 -52.5q0 -14 -2 -32.5t-3 -35t-3 -28.5 t-2 -15q0 -2 -1 -10t-3 -16t-4 -14.5t-4 -4.5q-2 0 -5 -12t-6.5 -29.5t-5.5 -36t0 -28.5t4 -31.5t5 -58.5q0 -18 1 -32.5t1 -25.5q0 -12 2 -18l-13 -149l-37 -31q-26 -51 -26 -75v-5q4 -23 24 -37q37 6 51.5 10t22.5 14.5t15.5 27t31.5 46.5q0 -4 37 19q33 20 31 49 q27 12 39 20.5t28 16.5q39 29 52.5 55.5t21.5 24.5q6 0 9 -2t12 -7q10 6 33.5 21.5t56.5 44.5q20 16 37.5 30.5t33.5 28.5l52 -6l34 -73l-22 -15q-12 -12 -24.5 -30.5t-23.5 -36t-23.5 -30.5t-24.5 -15q-51 -41 -113.5 -76t-122.5 -76q-10 -6 -18 -13t-17 -14q-4 -4 -3 -13 t3 -18.5t2 -17.5t-4 -8q-25 -4 -43 -16.5t-31.5 -25.5t-23.5 -24.5t-18 -13.5q-10 6 -26.5 7t-32 -6t-23 -24.5t3.5 -48.5l8 -145l-8 -76v-39l-39 -55l-68 -16h-135q-23 -4 -36 7t-13 58zM676 510q28 -4 64 -6q12 -1 25 -1q25 0 54 3q14 2 24.5 2h20.5l29 -29q0 -2 -1 -2 t-1 -2q4 -6 13 -20.5t26 -40.5q25 -20 35 -37t14 -31t6 -28.5t12 -32.5q6 -6 18.5 -19.5t31.5 -32.5q18 -18 26 -28t10 -12q4 -4 1 -8.5t-1 -4.5l52 -76l-5 -36l-143 -72l-43 10l-49 66q-8 10 -14.5 21t-16.5 26q-23 37 -44 62.5t-29 41.5q-2 4 -8.5 14.5t-22.5 18.5l-8 109 q8 4 -13.5 21t-44.5 44q-24 38 -24 61q0 11 6 19z" />
<glyph unicode="l" horiz-adv-x="731" d="M166 63v5l33 155l6 139v78l24 176q-2 10 -4 39t-6 72q-2 23 -2 41t-2 33v43q0 -2 14.5 13t24.5 39t8 52.5t-35 52.5l35 355q14 8 2 49l41 41l27 4q8 -2 26.5 -3t39 -2t40 -2t29.5 -3q18 -4 47 -5t41 -8l41 -22v-39q6 -12 -1 -33.5t-5 -50.5q0 -14 -2 -32.5t-3 -35 t-3 -28.5t-2 -15q0 -4 -2 -10l-3 -16q0 -8 -3 -14.5t-5 -4.5q-2 0 -9 -12t-14 -29.5t-11.5 -36t-2.5 -28.5t4.5 -31.5t4.5 -58.5q0 -18 1 -32.5t1 -25.5q0 -12 2 -18l-15 -121l4 -59q-26 -51 -26 -75v-5q4 -23 24 -37l-32 -195l8 -145l-8 -76v-39l-39 -55l-68 -16l-176 -33 q-23 -4 -36 7t-13 58z" />
<glyph unicode="m" horiz-adv-x="1697" d="M80 100l12 78l12 107l9 155q0 39 10 74t18 78l21 162q14 14 31.5 51t17.5 72q0 10 -3 15t-7 13l30 41q4 0 18.5 -1t34 0t40 2t38.5 5q74 10 93 31l77 4l-8 -78q18 -18 40 -21t44.5 6t43 28.5t34.5 46.5l117 -2q23 2 44 3t42 1q33 0 61.5 -5t32.5 -16q8 -37 35 -28 q4 2 15 -13.5t36 -19.5q12 -4 17.5 -13.5t7.5 -19.5t4 -17.5t8 -7.5l119 95l190 30l174 -139l4 -29q0 -12 -1 -23t-7 -17v-185l2 -196l-37 -228l-18 -20l-115 -35l-149 -18l-15 34l31 119l37 109l10 387l-49 92h-59l-95 -70h-22q-23 0 -28 -25.5t-1 -58.5q-18 -6 -26 -61 l-9 -57l-2 -125l-36 -164l14 -82l-19 -74l-18 -18l-227 -17l-47 43l14 80l29 211q8 37 15 84t11 95t5 92v28q0 26 -1 45q-4 23 0 38t2 24l-39 36l-127 -20l-41 35q-15 9 -26 9q-24 0 -25 -44q-12 -18 -21 -29.5t-11 -33.5q-10 -4 -17 -11q-8 -8 -16 -24.5t-13 -46.5 q-8 -59 -8 -100.5t11 -57.5v-37l-35 -82l-11 -145l-18 -142l-16 -18l-248 -21z" />
<glyph unicode="n" horiz-adv-x="1183" d="M176 57v14q0 26 5 58q7 41 7 64q25 0 11 49q-13 41 -13 68v9q2 33 10.5 67t2.5 44q-4 12 -10.5 27.5t-10.5 36.5l25 133q0 111 3 170t6 87.5t8 36t8 13.5t4 20.5t-1 57.5l43 22q35 -2 85.5 -11t97.5 -19q25 -4 43 -7.5t32 -7.5l29 -39q-39 -27 -51 -35t-2 -34 q27 -24 49 -24q7 0 15 3q28 12 38 39l133 33h78l35 -12q49 -16 99.5 -35t82.5 -29l37 -90l-2 -25q4 -59 7 -113q1 -23 1 -51q0 -37 -2 -81q-2 -49 -4 -99.5t-3 -95.5t-1 -79v-50q0 -2 5 -16.5t16 -30.5l-15 -23l-39 -18q-29 -2 -72.5 -10t-72.5 -8q-12 0 -20.5 9t-36.5 7 l-29 24q4 27 2 44.5t-6 31t-8 23.5t-4 20q2 31 6 68q4 29 9 66.5t13 74.5q4 23 4 58.5v71.5v69t2 49l-59 104q-8 2 -16.5 4.5t-18.5 6.5q-16 4 -31.5 -2.5t-30 -14.5t-26.5 -16t-22 -8q0 -6 -21.5 11t-36.5 34q-35 29 -50 11.5t-26 -46.5q2 -23 7.5 -31t11.5 -12q8 -2 14 0 q-10 -8 -16 -29.5t-9 -47t-2 -53.5t5 -50q1 -7 1 -18q0 -25 -6.5 -68.5t-6.5 -95.5q0 -22 1 -46q0 -31 -2 -64.5t-4 -65t-4 -57.5t-2 -40v-6q-39 -33 -80 -39q-6 0 -25.5 -1t-42 -2t-43 -2t-28.5 -1l-45 -4z" />
<glyph unicode="o" horiz-adv-x="1183" d="M104 440.5q-2 22.5 0 51.5q6 6 18.5 29.5t26 54t26.5 63.5t20 55q16 47 24 83t12 65q16 10 26.5 22.5t21.5 20.5q84 49 145 80.5t115 40.5l61 4q10 -2 18.5 -4t16.5 -5q12 -4 22.5 -5t12.5 -1l41 -63q0 -18 -8.5 -29.5t16.5 -15.5q27 -6 29 -8v-2q33 0 67.5 15t69.5 15 q8 0 28.5 -7t43 -17.5t42 -19.5t27.5 -13q-4 -31 2 -43t16.5 -17.5t19.5 -8.5t11 -13q6 -35 6 -60.5t-1 -49t2 -45t16 -46.5q-4 -8 -19.5 -31.5t-21.5 -48.5q-4 -23 -6 -35t-4 -16q6 -4 10 -16q2 -10 -4 -25.5t-25 -42.5q-37 -49 -41 -82.5t-16 -52.5q-4 -4 -25.5 -12 t-50.5 -19.5t-57.5 -26t-44.5 -28.5q-35 -6 -61.5 -16.5t-65.5 -14.5q-37 -8 -76 -19t-43 -11q-96 0 -115 -7q-16 -6 -39 -6l-186 68l-86 125q0 49 -3 83t-7.5 59.5t-6.5 48zM375 319.5q-2 -22.5 5 -45t30 -38.5q29 -20 59.5 -40t38.5 -20h22q12 0 23 -6l156 86 q31 20 59 131q16 59 27.5 89t11.5 56q0 45 -31 107q-16 33 -24.5 55.5t-12.5 44.5q-16 8 -17 25.5t-17 36.5q-20 16 -24.5 12t-8.5 -4h-19q-16 0 -43.5 -6t-44.5 -29q-25 -27 -42 -42t-19 -19q-20 -39 -36.5 -67t-27.5 -44l-18 -43q-10 -27 -10 -68v-14q4 -7 8 -35v-7 q0 -25 -25 -52q-6 -6 -12 -23.5t-8 -40z" />
<glyph unicode="p" horiz-adv-x="1175" d="M152 729q14 14 22 33q10 16 17.5 41.5t7.5 60.5q0 4 -13 -4q-4 -2 -10 -8l-16 41q10 27 20 63.5t17 69.5l77 21q37 -10 86 -25q61 -16 101.5 -25.5t60.5 -5.5v-88l144 74l57 -6q31 -25 64.5 -38t52.5 -15q18 -2 35.5 -4.5t29.5 -4.5q20 0 51 -6t54 -10l24 -37 q12 -31 21.5 -55.5t17.5 -45t17.5 -39t23.5 -36.5q-2 -12 -4 -31.5t2 -48.5q2 -47 31 -55l-6 -41q-29 -41 -46.5 -75t-27.5 -58q-6 -14 -11 -27.5t-10 -26.5q-25 -8 -76 -25.5t-112 -41.5q-119 -45 -139 -57q-16 -12 -31 -33l-18 -25q-6 -2 -19 -2q-10 -2 -20.5 -2t-26.5 -2 q-33 -2 -51.5 -4t-42.5 0l-33 -88v-62l2 -84l10 -20q4 -10 9.5 -22.5t11.5 -22.5l-41 -78q-6 -2 -23 -6q-10 -2 -25.5 -1t-33.5 7q-20 4 -36.5 -1t-30 -14t-24.5 -17.5t-20 -8.5q-10 0 -22 -2t-29 -4l-53 37v110l20 330v195l35 37q3 18 3 46t-3 68q-4 84 -35 84q0 43 -18 71 t-18 50zM485 295l50 -16h120l148 124l37 119q0 66 2 107q1 14 1 28q0 29 -3 62q-8 8 -19.5 21.5t-23 25.5t-20.5 20.5t-11 8.5q-4 0 -17.5 4t-30 8t-32.5 7t-24 1q-2 0 -7.5 -7t-12.5 -13.5t-19.5 -5t-28.5 17.5q-23 20 -35 16t-20.5 -21.5t-14.5 -43t-14 -45.5 q-8 -10 -12 -11.5t-4 -21.5q0 -2 10 -18.5t20 -38.5l-30 -27z" />
<glyph unicode="q" horiz-adv-x="1212" d="M66 500q23 12 36 31.5t19 41t6 41t-2 29.5q12 18 20.5 37.5t17.5 42t20.5 51.5t27.5 66q6 2 15.5 3t19.5 5l45 14q23 8 41 12.5t24 2.5l29 4q8 2 15.5 2t17.5 2q33 2 106 67l215 -61v102q0 27 10.5 35t63.5 21q14 6 49 0.5t72 -14.5t67.5 -16t40.5 -5l41 -31 q2 -10 3 -19.5t1 -19.5q2 -14 2.5 -26.5t2.5 -22.5q0 -16 2 -25q-4 -16 -7 -24q-4 -10 -5 -19.5t-1 -11.5q0 -35 3 -51t8 -25q2 -6 10 -10q0 -20 -17.5 -46t-17.5 -67q-8 0 -16.5 -11t-15.5 -28.5t-12 -39t-5 -39.5q-1 -38 -1 -65t1 -42l31 -35v-182l-11 -289v-84l-59 -51 q-10 2 -19.5 3t-17.5 1t-26.5 -1t-41.5 -3l-45 -6l-20 -4t-18 -4l-60 -21l-39 54q4 10 8.5 20t8.5 21l10 20l24 117l11 96l-23 84q-25 -1 -55 -1t-64 1q-31 0 -47 -14q-10 -10 -16 -15l-23 23q-10 10 -19 18t-13 13q-6 2 -24.5 2t-43.5 2t-55.5 6t-61.5 14t-49 25.5 t-30.5 32t-20.5 28.5t-16 17q-12 31 -31 67q-16 31 -40 71t-56 83zM394 666.5q3 -31.5 7.5 -65.5t9.5 -68.5t5 -67.5l28 -72l156 -125h90l45 15l25 362l-23 27q8 20 15.5 35.5t7.5 17.5q0 20 -5 18t-10 13q-14 6 -34.5 11t-67.5 15q-23 4 -46.5 1t-45 -8t-36.5 -10t-17 -3 q-10 6 -21.5 17.5t-17.5 11.5q-2 0 -10 -9l-19 -18q-10 -10 -19.5 -21.5t-15.5 -19.5q-4 -25 -1 -56.5z" />
<glyph unicode="r" horiz-adv-x="962" d="M156 135l14 37l-8 113l24 207l21 151q0 6 2 10q0 4 1 10.5t1 10.5q10 8 13 36.5t1 37.5q0 14 -1 26t-9 53q-2 12 -13.5 29.5t-23.5 32.5l27 63h39l211 39l51 -24q-6 -35 -1 -58.5t16 -36t25.5 -15.5t24.5 3l37 21q10 4 7 22.5t1 46.5l254 45l27 -32v-95h-53l-78 -61 q-100 -14 -164 -40q-60 -24 -59 -66v-5q-4 -10 -4 -23.5t14 -13.5l-41 -204l-18 -23v-227l-13 -115l-41 -41l-233 17z" />
<glyph unicode="s" horiz-adv-x="1075" d="M121 758v84l88 141q8 0 16 1t19 3q16 2 42.5 6t61.5 8q110 13 110 48q0 9 -7 20l292 43h76l15 -16l8 -68l-35 -27l-102 -2l-134 -65l-147 -47l-25 -56l47 -114l58 -8l26 -60l50 4l28 -35q18 6 37 9.5t33 -0.5q10 -2 22.5 -3t28.5 -6q20 -6 28.5 -13t14.5 -12t14.5 -9 t28.5 -4q6 -12 23.5 -24.5t39 -25t43 -24.5t31.5 -25q4 -4 5 -6t6 -6l12 -98l-45 -123l-12 -86l-101 -51l-166 -66l-100 14q-26 4 -49.5 4t-44.5 -4q-41 -8 -76 -8h-225l-25 62l16 59l297 31l99 12l123 131l-19 60l-90 16l-158 43l-26 -14l-86 38l-56 37l-63 140z" />
<glyph unicode="t" horiz-adv-x="970" d="M66 918l38 73q37 6 52.5 4t23.5 -6q12 2 36 5t73 12q4 35 14 77.5t14 96.5l-28 28l-2 31l22 53h246l92 -4q14 -16 12 -37.5t-8 -40t-11 -30t1 -6.5v-127q-12 -10 -18.5 -23.5t-10.5 -30.5l4 -4l119 4q6 -2 12.5 -4t14.5 -4q25 -6 63 -6l19 -21l-23 -98q-12 0 -32.5 -3 t-42 -6t-39 -5t-23.5 -2l-86 -25q-8 -23 -11 -38t-3 -28.5t1 -28.5t1 -38l-15 -260q-6 -35 -3 -63.5t10 -49.5l8 -20t8 -21l18 -53l9 -10l198 61l76 19l45 -41l-49 -66l-47 -24l-41 -8l-236 -105q-10 0 -16 2q-10 0 -23.5 1t-29.5 3q-28 2 -50 2q-38 0 -61 -6q0 57 -45 78 q-23 14 -40 24.5t-32 16.5q0 35 1 47t-5 33q-4 10 -2 46t4 91q1 19 1 36q0 33 -5 57q-8 36 -24 36q2 27 3 53.5t3 46.5q2 10 2 22.5v22.5q4 8 6 13.5t4 7.5q2 4 19.5 11t31.5 42q42 29 42 53q0 2 -1 6q-6 26 -71 37q-14 -2 -23.5 -7t-9.5 -23l-123 -27l-37 23 q-8 23 -12 60.5t-8 64.5z" />
<glyph unicode="u" horiz-adv-x="1202" d="M143 428l7 115q8 23 8 31t-2 14t-2 16t10 35l10 76q18 -6 29.5 10t14.5 39.5t-3 43t-25 19.5q-8 16 -10 36t2 20q0 12 -2 28.5t-2 61.5l60 49q25 -2 61.5 -3t76.5 -1t76.5 -1t59.5 -5l16 -27q-12 -41 -12 -59q-2 -12 0 -21l-4 -94q-6 -12 -11 -35.5t-8.5 -51.5 t-5.5 -56.5t-2 -49.5q-10 -34 -20 -72q-6 -21 -6 -41q0 -16 4 -30q4 -10 5 -25.5t13 -56.5q-4 -12 -6 -30.5t-1 -38t8 -39t22 -31.5l78 -61l123 -11q20 -27 36.5 -25.5t26.5 42.5l72 43l57 151l2 94v101q41 30 45 62v5q0 31 -43 72l-6 236l41 36l125 -10l45 -67l-39 -287 l6 -117l-10 -123l-31 -119l-119 -176q-78 -60 -168 -80q-60 -14 -127 -13q-33 0 -67 3l-96 43h-56q-33 0 -114 64q-35 27 -60 47q-6 4 -11 8t-9 8q0 16 -4 41t-13 62q-6 37 -11 58t-7 32q0 6 2 15t1 18.5t-7 15.5t-23 6z" />
<glyph unicode="v" horiz-adv-x="1202" d="M82 907v76q20 12 53 12q14 0 19.5 13.5t15.5 19.5q10 4 35.5 12.5t30.5 18.5l71 -15q16 -10 24.5 -8t18.5 -6q18 -16 39 -28.5t47 -22.5q-6 -4 13.5 -58.5t52.5 -132t72.5 -167t75.5 -161t61.5 -114.5t29.5 -29q8 -2 20.5 33t29.5 82q14 51 32.5 86t26.5 51 q27 16 36 32.5t25 39.5q12 14 17.5 31.5t7.5 19.5q16 33 44 76t30 98q4 37 15 64.5t15 44.5l62 6l67 -47q0 -25 -8 -44.5t-6 -35.5q0 -8 -8 -21.5t-17.5 -27.5t-16.5 -27.5t-7 -19.5q-2 -14 -16.5 -32.5t-16.5 -47.5q0 -59 -18 -84q-23 -33 -57.5 -89t-73.5 -132 t-61.5 -130.5t-26.5 -66.5l-17 -29l-45 -71q-36 -20 -74 -24q-6 -1 -11 -1q-33 0 -71 21l-45 -17l-45 33q-8 23 -40.5 62.5t-51.5 87.5q-35 94 -50 134t-28 44q-10 4 -26.5 22.5t-36.5 26.5q-23 72 -53.5 152.5t-81.5 150.5q-23 31 -32 52.5t-14 37.5t-11.5 27.5t-20.5 21.5 z" />
<glyph unicode="w" horiz-adv-x="1597" d="M57 854l9 68l2 2l12 6q18 8 35 8q41 6 57 37l172 -2q14 -8 36.5 -13.5t27.5 -9.5q10 -4 14 -11t27 -15q0 -41 13 -106.5t46 -131.5q-10 10 -4 -5t20.5 -44t34 -64.5t37.5 -66.5t30.5 -52.5t12.5 -19.5q39 -76 55 -182h1q13 0 59 115q23 55 39 95t26 60q-14 27 -26.5 55.5 t-28.5 28.5v19q0 8 1 13t1 9q0 10 -14 51q-6 27 2 55.5t6 45.5q-14 23 -25.5 48t-38.5 46q-14 12 -8 45q2 20 6 27q2 4 2 8l64 28q8 -2 16 -1t17 4q14 4 26 9t23 21q23 -10 46 -15t25 -9q2 -8 39 -13q10 -41 31 -95t35 -101q13 -38 13 -82v-17q-3 -54 -5 -88q14 -8 26.5 -14 t18.5 -27q4 -10 10 -27.5t6 -25.5q0 -6 -6 -23.5t-12 -35.5h-4q-11 0 -11 -11q0 -13 15 -40q20 -59 43 -88l49 45l92 204l56 152l63 123l70 84h80l34 -39l-2 -47l-47 -86l-102 -183q-43 -14 -57.5 -46.5t0.5 -61.5l-95 -182l-14 -105v-37l-78 -41h-49l-84 54l-29 55 q-8 6 -15 12t-13 13q-10 10 -20.5 23t-8.5 28q4 29 1 37t-7 -2q-20 -31 -48 -53.5t-54.5 -41t-47 -32t-26.5 -25.5l-15 -29l-47 -69l-161 -4l-33 -15l-88 51q-6 23 -24.5 53.5t-29.5 71.5q-23 102 -29.5 142.5t-19.5 44.5q-8 4 -13 15t-21 26q0 18 1 31.5t-3.5 22.5 t-16.5 15t-37 9q-14 27 -35.5 74.5t-43 97t-42 89.5t-32.5 50q-4 2 -6.5 4t-6.5 4z" />
<glyph unicode="x" horiz-adv-x="1212" d="M74 930l18 55l273 37q6 -6 3 -12t-9.5 -10.5t-13.5 -7.5t-9 -3t2 -2l14 -6q23 -4 35 -18q4 -2 22.5 -17.5t28.5 -27.5q2 -4 7.5 -6.5t11.5 -6.5t11 -14t9 -31q6 -16 43 -61q39 -49 129 -68q-27 -29 -18.5 -38t24.5 -19q20 23 41 49.5t38.5 52t28.5 47t11 33.5 q0 27 16.5 40t14.5 24q0 2 12 16t4 53l162 35q10 -14 17.5 -23.5t19.5 -13.5l8 -76q-39 -61 -82 -118q-35 -49 -60.5 -82t-41.5 -47q-10 -16 -29.5 -38t-42.5 -63q27 -23 56.5 -52.5t43.5 -45.5q6 -29 18.5 -46.5t27 -28.5t26.5 -16t17 -7q8 -6 8 -34t12 -42t35.5 -13 t38.5 -14q45 -47 92 -61l27 -43q-2 -4 -10.5 -12.5l-17.5 -17.5t-17.5 -15t-10.5 -6q-6 2 -14 2v2l-43 -31q-18 -10 -32.5 -18.5t-43.5 -26.5l-29 -19l-49 11l-49 65q-27 25 -42 39t-19 19q-4 4 -7.5 10t-7.5 10t-9 10t-13 13l-31 32q-20 16 -42.5 43t-45.5 49.5t-44.5 35 t-39.5 -0.5q-35 -35 -56.5 -70.5t-37.5 -54.5q-18 -27 -29.5 -38t-15.5 -13h-10q-10 0 -17 2q-10 -12 -28.5 -33.5t-47.5 -56.5q-16 -23 -27.5 -36t-17.5 -21q-4 -12 -4 -6l-2 -2l-37 4l-90 12l-22 57q18 29 22 43q12 43 45 52q20 16 48 42.5t63 63.5q35 39 57.5 75t40.5 54 q4 0 10 2q6 0 14.5 1t20.5 3q25 6 28 27.5t-15 21.5l-66 76q-10 23 -27.5 42.5t-42.5 31.5q-55 63 -87.5 102t-56.5 69t-44.5 57.5t-50.5 68.5z" />
<glyph unicode="y" horiz-adv-x="1288" d="M70 918q25 27 61 30q41 4 57 29l117 37q37 -20 68 -47q43 -39 88 -54q0 -27 16.5 -47t37 -37.5t39.5 -32t28 -28.5q0 -2 3 -13.5t4 -23.5t0 -21.5t-7 -9.5q-10 0 2 -10t47 -26q0 -6 9 -22.5t23.5 -37t29 -42t24.5 -40.5q23 -43 31 -81t14 -42q4 0 16.5 5.5t26.5 12.5 t24.5 18t10.5 24q0 12 -9 20l-14 19q-6 10 -10 18t0 16q23 18 33 32t26 36q4 10 17.5 23.5t29 26t27.5 21.5t12 11q16 33 26.5 64.5t27.5 91.5q2 10 11 20t20.5 19.5t20.5 16.5t11 13q2 4 2 5t2 6l53 47l158 -31l-33 -80v-6q2 -18 -22 -123q-2 -6 -17.5 -18.5t-35 -28.5 t-38 -33.5t-24.5 -34.5l-297 -454l-61 -62q-6 -2 -11.5 -5t-9.5 -3l19 -27l-97 -145l-125 -164l-30 -43l-242 12l-37 105l70 18l49 52l37 26v51q8 4 15 9.5t16 11.5q12 10 26.5 24.5t26.5 34.5q23 41 23 61q0 19 -21 19q16 12 22 19q20 20 27 53q3 21 3 37q0 32 -11 45 q-10 2 -45 43q-18 20 -30.5 34.5t-20.5 18.5q-12 35 -36 78t-51.5 87t-56 87t-53.5 80q-74 111 -129 149z" />
<glyph unicode="z" horiz-adv-x="1067" d="M82 178q4 10 16 27l19 24q25 31 39 51.5t22 30.5q0 4 2 10.5t2 20.5l172 291q27 0 28 11t9 15q6 6 13.5 21.5t15.5 34t20.5 38t30.5 33.5q76 59 84 74q2 8 -16 29l-21 16q-29 -2 -46 -14t-44 -12q-29 14 -58.5 18t-60 4t-61.5 -1t-60 3q-25 4 -42 7t-25 5l-15 13v22v26.5 t-4 24.5l29 39q25 1 52 1h29q44 -1 97 -5q37 -2 56.5 0t31 6.5t19.5 8.5t24 4q-4 -12 11.5 -20.5t38 -12.5t48 -3t44.5 7q59 22 90 22q5 0 10 -1q14 -6 37.5 -10.5t51.5 -7.5t54.5 -7t48.5 -12v-37q8 -6 15.5 -10.5t21.5 -16.5q-8 -14 -14 -30.5t-10 -30.5q-4 -10 -5 -18.5 t-3 -16.5l-86 -135l-91 -152q-4 -4 -9 -20.5t-19 -24.5q-4 -2 -12.5 -10t-18.5 -17.5t-19.5 -16.5t-13.5 -7l-6 -2q-14 -27 -30.5 -50.5t-47.5 -62.5q-31 -16 -63.5 -19t-34.5 -3q-27 -4 -40 -18.5t-15 -30t5 -26.5t21 -7q25 4 57.5 6t80.5 10q18 4 32.5 5t20.5 -1 q8 -2 27.5 -3t48.5 1q36 2 55 2t20 -2q2 -2 7.5 -5t9.5 -9q14 -4 48 1t83 13q23 4 39 7t28 8l37 -41l4 -35l-36 -88q-39 -8 -74 -18.5t-60 1.5q-42 6 -64 6h-9q-12 -2 -34 -3t-54 1q-38 -4 -80.5 -4t-89.5 4q-13 1 -27 1q-39 0 -88 -8q-68 -11 -123 -40l-18 6q-25 4 -37 -4 q-2 -2 -4 -2t-4 -2l-11 4q-25 14 -26.5 15.5t0.5 3.5h-52zM106 928l15 -13h-6q-8 0 -9 13z" />
<glyph unicode="{" horiz-adv-x="903" d="M248 688v129l90 29l59 74l33 110v80l-31 47l25 166q59 86 121.5 138t130.5 77l153 55l64 -71l-16 -52l-89 -51q-35 -2 -52 -11t-23 -23.5t-7 -34t-4 -39.5v-82l19 -215l-39 -156l-10 -57l-56 -82l66 -90l39 -332l-21 -162l45 -239l93 -35l-76 -113l-283 162l-82 164 l27 176v61l-27 31l-26 215l-52 94z" />
<glyph unicode="|" horiz-adv-x="626" d="M195 1479q4 4 118 -19q53 -10 82 -15t33 -7l-2 -320v-69v-23.5t2 -30.5q6 -122 18 -194q-41 -12 -20 -82q10 -35 20 -55l7 -19l-72 -192l-12 -78l32 -277l25 -112l2 -86h-178l-10 43l-17 80v399q0 4 2 6q2 4 3 8t5 13q12 29 7 28q8 72 9 175.5t-5 244.5q-12 276 -4 307 q2 0 4 2l12 8q-14 39 -17 79t-16 104q-23 25 -24.5 45t-3.5 37z" />
<glyph unicode="}" horiz-adv-x="819" d="M-14 -215l16 51l88 51q35 2 52.5 11.5t23.5 24t7 32.5t3 41v82l-18 215l39 156l10 57l55 82l-65 90l-39 270l20 162l-10 236l-127 120l76 113l282 -162l82 -164l-26 -258v-61l26 -31l27 -153l51 -95l72 -37v-129l-90 -28l-60 -74l-32 -111v-79l30 -47l-24 -166 q-59 -86 -122 -138.5t-130 -76.5l-154 -56z" />
<glyph unicode="~" horiz-adv-x="980" d="M72 496l135 223l205 65q57 -6 91 -21t52 -35.5t26.5 -44.5t16.5 -46h100l166 127l47 -35l-28 -121l-148 -149q-37 -2 -63.5 -5t-49 -3t-46 6t-54.5 22q-51 39 -98 45t-92 11l-94 -54l-74 -39z" />
<glyph unicode="&#xa1;" horiz-adv-x="854" d="M311 -82l29 1186h178l29 -1186h-236zM311 1229v227h236v-227h-236z" />
<glyph unicode="&#xa2;" d="M479 590q0 305 180 491t482 187l43 149l143 -39l-35 -121q57 -8 103.5 -19.5t83.5 -27.5l-19 -206q-104 53 -223 61l-262 -918q74 -25 166 -24q180 0 319 61l17 -198q-113 -70 -336 -70q-125 0 -223 33l-52 -178l-137 39l55 192q-305 172 -305 588zM698 590 q0 -244 148 -369l237 842q-178 -20 -281.5 -147.5t-103.5 -325.5z" />
<glyph unicode="&#xa3;" d="M502 145q0 98 76 156q72 53 157 53q43 0 115 -18q-4 29 -10 65.5t-17 79.5h-266v160h227q-35 156 -34 227q0 193 108.5 302.5t306.5 109.5q141 0 224 -57q98 -72 98 -215v-84h-211q0 94 -21 133q-27 63 -110 63q-82 0 -135.5 -51t-53.5 -137q0 -66 8.5 -139.5 t24.5 -151.5h492v-160h-457q12 -92 12 -198v-23q156 -119 215 -119q74 0 95 174l184 -61q-14 -135 -88 -221q-76 -88 -191 -88q-113 0 -266 129q-41 -59 -104 -99q-72 -41 -140 -41q-90 0 -157 50q-82 57 -82 161zM674 139q0 -59 78 -59q67 0 96 90q-57 33 -96 33 q-78 0 -78 -64z" />
<glyph unicode="&#xa4;" horiz-adv-x="1871" d="M133 1245l98 107l240 -215q186 174 447 174q266 0 458 -187l252 226l107 -101l-267 -235q104 -166 105 -361q0 -219 -125 -387l283 -250l-93 -104l-284 250q-188 -164 -436 -164q-240 0 -420 149l-271 -237l-92 106l262 234q-139 182 -139 403q0 207 117 371zM391 651 q0 -215 154 -368q156 -154 373 -154q211 0 368 152q156 153 156 370t-156 371q-154 156 -368 156q-217 0 -373 -156q-154 -154 -154 -371z" />
<glyph unicode="&#xa5;" d="M418 426v162h436l-88 153h-348v162h256l-248 434h225l238 -434h266l240 434h221l-250 -434h285v-162h-375l-88 -153h463v-162h-523v-508h-215v508h-495zM973 741l47 -88l49 88h-96z" />
<glyph unicode="&#xa7;" horiz-adv-x="1153" d="M219 618q0 111 63.5 178.5t168.5 71.5q-41 53 -71 94.5t-46 69.5q-53 96 -53 197q0 131 84 211q80 74 202 73q166 0 248 -75q92 -86 92 -273h-209q0 117 -43 170q-29 35 -90 35q-86 0 -86 -102q0 -84 103 -211q12 -18 166 -178q206 -219 206 -375q0 -47 -15 -90t-41 -79 t-62.5 -60.5t-79.5 -32.5q57 -59 98 -129q61 -109 61 -201q0 -145 -110 -227q-96 -72 -236 -72q-338 0 -338 358h203q0 -213 131 -213q147 0 148 129q0 74 -74 152q-35 37 -129 115q-141 115 -197 186q-94 119 -94 278zM387 682q0 -98 125 -217q121 -115 195 -115 q73 0 73 80q0 90 -121 207q-113 113 -215 113q-57 0 -57 -68z" />
<glyph unicode="&#xa8;" horiz-adv-x="1024" d="M229 1403q0 41 28 71.5t73 30.5q47 0 73 -32q27 -31 27 -74q0 -53 -24 -80q-23 -29 -76 -29t-76 31q-25 27 -25 82zM604 1395q0 53 27 80q27 31 76 30q51 0 75 -28q27 -31 27 -78q0 -45 -25 -76q-27 -33 -77 -33q-47 0 -74 31q-29 29 -29 74z" />
<glyph unicode="&#xa9;" horiz-adv-x="1476" d="M61 684q0 141 52.5 266t144.5 218.5t216 147.5t267 54h2q141 0 264 -54t213.5 -147.5t142.5 -218.5t52 -266q0 -143 -52 -269t-142.5 -219.5t-214 -147.5t-265.5 -54q-143 0 -267 54t-216 147.5t-144.5 219.5t-52.5 269zM209 680q0 -117 41 -217.5t112.5 -176t169 -118.5 t207.5 -43q111 0 207 43t168 118.5t113 177t41 218.5t-41 218t-113 176t-168 119t-207 44h-2q-111 0 -207 -44t-167.5 -119t-112.5 -177t-41 -219zM360 672q0 92 35 167.5t92.5 128t133 81t159.5 28.5q80 0 152 -22.5t96 -46.5l-35 -125q-25 16 -84 37.5t-129 21.5 q-129 0 -195.5 -73.5t-66.5 -190.5q0 -113 67.5 -189.5t196.5 -76.5q61 0 120 17t99 46l39 -121q-63 -45 -136 -61.5t-142 -16.5q-96 0 -171 31t-126 84t-78 125t-27 156z" />
<glyph unicode="&#xaa;" horiz-adv-x="825" d="M109 895q0 172 215 213q84 6 182 25q16 16 16 53q-6 55 -114 55q-111 0 -119 -86h-150q2 233 287 234q113 0 180 -43q80 -53 80 -150v-326q0 -23 29 -22q4 0 14 1t25 3v-139q-59 -12 -74 -13h-23.5t-40.5 2q-49 4 -61 91q-96 -86 -231 -86q-80 0 -146 47q-70 51 -69 141z M131 471v141h606v-141h-606zM281 907q0 -53 75 -53q55 0 109 29q55 30 55 69v52q-37 -20 -149 -35q-90 -12 -90 -62z" />
<glyph unicode="&#xab;" d="M215 639l1085 717l60 -90l-932 -629l924 -631l-70 -84zM659 639l1084 717l61 -90l-934 -629l928 -631l-72 -84z" />
<glyph unicode="&#xac;" d="M287 1227v106h1505v-622h-113v516h-1392z" />
<glyph unicode="&#xad;" horiz-adv-x="1024" d="M270 537v157h525v-157h-525z" />
<glyph unicode="&#xb0;" horiz-adv-x="829" d="M172 1266q0 102 74 176q76 74 178 74q104 0 178 -74t74 -176q0 -104 -74 -179q-78 -72 -178 -71q-100 0 -178 71q-74 74 -74 179zM283 1266q0 -57 42 -99.5t99 -42.5t98 42.5t41 99.5t-41 99t-98 42t-99 -42t-42 -99z" />
<glyph unicode="&#xb1;" horiz-adv-x="1161" d="M95 800.5q1 16.5 4 36t6.5 36t3.5 22.5q0 2 33.5 14.5t105.5 14.5q137 6 137 10q0 8 39 14q27 8 35 21.5t8 27t-2 27.5t2 25q2 35 1 72.5t-3 80.5q-2 25 -1 45.5t1 36.5l47 37q39 -2 88 14.5t84 20.5l49 -41q2 -23 3 -38t-3 -22q-2 -20 2 -28q16 -14 5 -51t-27 -86 q-16 -37 -20.5 -43.5t-12.5 -12.5q-47 -8 -49 -35.5t20 -44.5q14 -6 26.5 -3t24 9.5t18.5 12.5t11 6l176 6l115 -35l39 -116v-28.5t-4 -31.5h-289q-29 0 -43 2t-27 4q6 -23 7 -24v-80q0 -72 3 -120t7 -75l-39 -55h-37q-6 0 -23.5 -4t-37 -10t-36 -12.5t-22.5 -12.5l-49 -4 l-8 31q-14 55 -14 101t-5 97q0 2 -2 11.5t-2 25.5l17 113q-23 -2 -60 -4t-90 -6q-102 -10 -104 -7q-10 4 -8 18.5t-5 20.5q-2 4 -10 0t-33 -6q-45 -2 -49 2t-3 20.5zM145 236l19 38q27 4 42 4.5t24.5 -2t13.5 -4.5t8 -2q2 0 34.5 4.5t98.5 10.5q66 8 146.5 11t175.5 3h278 l37 -59l8 -121q-2 -2 -6 -2t-8 -1t-10 -1q-25 -4 -23 10h-53q-84 4 -309 -6q-117 -4 -184.5 -11.5t-92.5 -19.5q-10 -4 -15 -5t-6 -1t0 -3t1 -11h-99l-61 28q-4 29 -9 67t-10 73z" />
<glyph unicode="&#xb2;" horiz-adv-x="1024" d="M258 809v119l117 110q180 172 190 246v10q0 23 -21.5 42.5t-47.5 19.5q-70 0 -177 -58l-38 156q129 61 227 62q254 0 254 -201q0 -111 -146 -262l-77 -80h260v-164h-541z" />
<glyph unicode="&#xb3;" horiz-adv-x="1024" d="M272 838l25 155q86 -37 156 -37q119 0 116 74q-4 74 -118 74h-28t-50 -2v145l39 -2q68 -4 98 10q61 20 57 68q-2 45 -86 45h-15t-20 -2q-29 0 -127 -45l-20 168q49 20 93 29.5t83 11.5h19q266 0 266 -205q0 -90 -96 -143q98 -60 98 -158q0 -119 -94 -176 q-84 -53 -215 -49q-41 2 -87.5 12t-93.5 27z" />
<glyph unicode="&#xb4;" horiz-adv-x="681" d="M225 1049l137 260h183l-232 -260h-88z" />
<glyph unicode="&#xb6;" horiz-adv-x="1153" d="M92 999q0 188 141 310q131 106 320 106h434v-1663h-149v1508h-101v-1508h-151v832h-33q-188 0 -320 106q-141 119 -141 309z" />
<glyph unicode="&#xb7;" horiz-adv-x="679" d="M238 496v243h235v-243h-235z" />
<glyph unicode="&#xb8;" horiz-adv-x="681" d="M86 -332l43 82q61 -31 135 -31q119 0 119 39t-113 39q-45 0 -77 -18l-46 49l56 143l129 -16l-25 -72q27 2 48.5 3t37.5 1q55 0 109 -34q57 -38 57 -95q0 -63 -75.5 -104t-192.5 -41q-94 0 -205 55z" />
<glyph unicode="&#xb9;" horiz-adv-x="1024" d="M289 1329l215 184h153v-704h-202v455l-60 -43z" />
<glyph unicode="&#xba;" horiz-adv-x="768" d="M78 1040q0 154 83 244t236 90q147 0 234 -94q82 -88 82 -240t-82 -239q-88 -94 -234 -94q-150 0 -234.5 90t-84.5 243zM94 471v141h608v-141h-608zM254 1040q0 -82 37 -127q39 -49 104 -49q66 0 104 50t38 126q0 174 -142 174q-141 0 -141 -174z" />
<glyph unicode="&#xbb;" d="M242 1266l63 90l1081 -717l-1064 -717l-74 84l928 631zM688 1266l57 90l1088 -717l-1067 -717l-70 84l924 631z" />
<glyph unicode="&#xbc;" d="M90 -158l1698 1710l129 -116l-1694 -1715zM254 1323l215 182h156v-841h-203v591l-64 -43zM1055 29l422 561h211v-553h147v-152h-147v-168h-195v168h-438v144zM1272 37h219v295z" />
<glyph unicode="&#xbd;" d="M90 -158l1698 1710l129 -116l-1694 -1715zM254 1323l215 184h156v-843h-203v593l-64 -45zM1194 -121l215 217q57 59 89 94t42 46q59 76 57 120q0 33 -31.5 57.5t-78.5 24.5q-109 0 -227 -63l-43 174q172 70 264 69q133 2 223 -59q92 -66 96 -188q4 -123 -176 -310 l-131 -141h313v-184h-612v143z" />
<glyph unicode="&#xbe;" d="M94 -162l1698 1710l131 -116l-1696 -1715zM240 680l26 186q102 -45 205 -45q143 0 139 97q-2 63 -82 86q-37 8 -82 6l-84 -4v174l60 -2q6 -2 33 -2q39 0 63 8q92 25 90 92q-4 59 -104 59h-18.5t-30.5 -2t-56.5 -14t-97.5 -39l-22 197q53 23 107 34t112 13h22 q127 0 203 -51q98 -66 98 -195q0 -104 -110 -178q112 -74 112 -191q0 -141 -108 -215q-96 -66 -246 -61q-53 2 -111.5 13t-117.5 34zM1057 29l422 561h209v-553h149v-152h-149v-168h-195v168h-436v144zM1272 37h221v295z" />
<glyph unicode="&#xbf;" horiz-adv-x="1193" d="M168 272q0 197 184 406q86 94 115 149q41 78 41 170v70h203v-68q0 -195 -144 -368q-57 -70 -89 -111t-42 -53q-55 -92 -55 -195q0 -180 217 -180q123 0 305 64l10 -217q-182 -53 -323 -54q-180 0 -293 86q-129 100 -129 301zM489 1210v224h236v-224h-236z" />
<glyph unicode="&#xc6;" horiz-adv-x="1921" d="M51 -106l793 1382h948v-207h-666v-358h541v-205h-541v-408h666v-204h-885v425h-370l-244 -425h-242zM651 520h256v443z" />
<glyph unicode="&#xd0;" horiz-adv-x="1540" d="M27 510v205h221v561h602q262 0 405 -229q121 -195 121 -453q0 -256 -104 -449q-133 -252 -387 -251h-637v616h-221zM469 98h377q166 0 250 176q65 142 65 322q0 193 -86 326q-96 147 -262 147h-344v-354h330v-205h-330v-412z" />
<glyph unicode="&#xd7;" horiz-adv-x="1067" d="M-27 264l27 43q45 14 92 62q6 8 16.5 11t21.5 4t20.5 4t15.5 9q12 14 12 42t8 34q4 2 16.5 7t26 16.5t26.5 29t19 45.5q14 16 45 46t58 53q-23 41 -43.5 62.5t-30.5 37.5q-14 14 -39.5 46t-62.5 85q-43 57 -82 119l8 76q12 4 19.5 13t17.5 24l164 -35q-6 -29 0 -44.5 t12 -21.5q4 -4 2 -10q0 -4 16.5 -17.5t16.5 -39.5q0 -12 11 -35t28.5 -48.5t38 -53t41.5 -48.5q16 10 24 19.5t-18 38.5q90 18 129 69q37 45 43 62q4 20 9 30.5t11 14.5t11.5 6t7.5 6q10 12 28.5 27.5t22.5 17.5q6 10 24.5 15.5t22.5 9.5l4 2q-2 0 -9 3t-13.5 7t-9.5 10 t3 12l234 -36l18 -56q-31 -41 -51 -68.5t-43.5 -56t-56.5 -68.5t-88 -106q-27 -12 -44.5 -31.5t-27.5 -41.5l-66 -76q-18 0 -15 -21.5t28 -27.5q10 -2 19 -3t16 -1q6 -2 10 -2q18 -18 40.5 -54.5t59.5 -74.5q76 -84 111 -109q33 -8 45 -51q4 -14 22 -43l-22 -58l-90 -12 l-37 -4l-2 2q-2 2 -2 3t-2 3q-6 8 -17.5 21.5t-27.5 36.5q-29 35 -48.5 56t-29.5 34q-6 -2 -19 -2h-8q-4 2 -15 13t-30 38q-16 18 -37.5 55t-56.5 72q-18 12 -40 0t-44.5 -35t-45 -49.5t-42.5 -44.5q-41 -37 -53 -56q-4 -4 -7.5 -10t-7.5 -10q-8 -8 -63 -57l-49 -66l-49 -10 l-29 18q-29 18 -43.5 26.5t-32.5 18.5z" />
<glyph unicode="&#xd8;" horiz-adv-x="1622" d="M127 -49l139 164q-127 188 -127 471q0 307 164 508q178 215 485 215q219 0 383 -115l146 174l151 -123l-157 -192q131 -186 131 -467q0 -303 -170 -510q-180 -217 -484 -217q-217 0 -387 121l-129 -156zM352 586q0 -168 62 -291l618 739q-102 72 -244 72 q-207 0 -325 -154q-111 -141 -111 -366zM537 137q104 -74 251 -74q205 0 326 154q113 144 113 369q0 158 -66 293z" />
<glyph unicode="&#xde;" horiz-adv-x="1366" d="M217 -106v1382h209v-201q274 0 444 -92q224 -125 224 -401q0 -496 -668 -496v-192h-209zM426 283q209 0 309 47q150 63 150 256q0 178 -154 245q-102 49 -305 50v-598z" />
<glyph unicode="&#xdf;" horiz-adv-x="1280" d="M184 -109v1084q0 166 131 254q115 78 297 78t291 -90q113 -94 113 -279q0 -98 -45 -175t-121 -106q129 -45 201.5 -142t72.5 -232q0 -205 -102 -313.5t-301 -108.5q-254 0 -328 159v-129h-209zM393 158h178q14 -98 152 -99q194 0 192 217q0 127 -108 199q-102 61 -262 62 v198q262 0 262 191q0 176 -199 176q-215 0 -215 -144v-800z" />
<glyph unicode="&#xe6;" horiz-adv-x="1665" d="M178 143q0 188 178 293q100 57 340 123q0 205 -125 205q-147 0 -161 -113h-217q6 172 135 250q96 59 241 60q174 0 258 -134q90 133 287 134q186 0 285 -142q104 -145 92 -393l-2 -43h-574q8 -322 191 -322q70 0 117 62q43 55 45 139h221q-12 -186 -113.5 -293.5 t-267.5 -107.5q-145 0 -254 114q-133 -109 -313 -114h-31q-135 0 -223 61q-109 74 -109 221zM397 156q0 -100 127 -101h15q98 0 202 68q-23 57 -33 119.5t-8 128.5q-303 -70 -303 -215zM922 553h350q0 209 -178 209q-78 0 -127 -64q-43 -61 -45 -145z" />
<glyph unicode="&#xf0;" horiz-adv-x="1280" d="M162 352q0 211 135 350t342 140q113 0 172 -47q-43 94 -129 190l-158 -104l-133 112l162 121q-23 20 -141 84l114 113q53 -23 166 -82l162 133l131 -123l-162 -131q295 -318 295 -721q0 -225 -123 -369q-133 -158 -354 -157q-209 0 -344 137t-135 354zM365 352 q0 -135 75 -217q76 -88 201 -88q61 0 111.5 23.5t86 64.5t55 96t19.5 121q0 127 -75 215q-76 88 -197 88q-119 0 -199 -88q-78 -90 -77 -215z" />
<glyph unicode="&#xf7;" horiz-adv-x="1073" d="M104 727l19 39q27 4 42 4t24.5 -2t13.5 -4t8 -2q2 0 35 4t98 10q66 8 146.5 11.5t175.5 3.5h278l37 -60l8 -121q-2 -2 -6 -2t-8 -1t-10 -1q-25 -4 -23 10h-53q-84 4 -309 -6q-117 -4 -184.5 -11t-92.5 -19q-10 -4 -15 -5.5t-6 -1.5t0 -3t1 -11h-99l-61 29q-4 29 -9 66.5 t-10 72.5zM395 207q10 27 15.5 58.5t7.5 70.5q0 18 1 33.5t3 25.5q2 8 2 21q6 4 51 6q49 4 55 10q0 -2 25 8l25 9q4 0 16 -3.5t25.5 -6.5t24.5 -6t16 -3q14 0 18 1t7 1h7.5t16.5 -2q-4 -4 -3 -7t3 -7l6 -4v-2l-6 -156l-19 -72q-2 -2 -10 -6l-25 -24q-16 -10 -26 -17.5 t-13 -7.5q-4 4 -108 37q-55 20 -82 29.5t-33 13.5zM395 1006q10 27 15.5 58.5t7.5 70.5q0 18 1 33.5t3 25.5q2 8 2 20q6 4 51 7q49 4 55 10q0 -2 25 8l25 8q4 0 16 -3t25.5 -6t24.5 -6t16 -3q14 0 18 1t7 1h7.5t16.5 -2q-4 -4 -3 -7t3 -8l6 -4v-2l-6 -155l-19 -72 q-2 -2 -10 -6l-25 -25q-16 -10 -26 -17t-13 -7q-4 4 -108 37q-55 20 -82 29t-33 14z" />
<glyph unicode="&#xf8;" horiz-adv-x="1280" d="M147 408q0 225 121 383q135 176 359 176q94 0 200 -47l80 116l162 -90l-94 -145q129 -157 129 -393q0 -221 -125 -377q-135 -176 -352 -176q-109 0 -209 49l-86 -135l-162 94l102 160q-125 156 -125 385zM352 408q0 -98 41 -187l332 531q-39 20 -98 20q-129 0 -203 -110 q-72 -109 -72 -254zM522 74q45 -25 105 -25q125 0 200 113q74 101 74 246q0 109 -47 198z" />
<glyph unicode="&#xfe;" horiz-adv-x="1280" d="M184 -383v1677h199v-444q113 119 279 119q213 0 339 -183q113 -155 113 -372q0 -219 -113 -375q-125 -180 -339 -180q-166 0 -279 123v-365h-199zM375 416q0 -154 69 -248q74 -109 199 -109q121 0 199 111q69 101 69 246q0 147 -69 248q-74 109 -199 108 q-123 0 -201 -108q-68 -98 -67 -248z" />
<glyph unicode="&#x152;" horiz-adv-x="1914" d="M127 586q0 236 96 418q119 217 348 260q63 12 166 12h1002v-207h-639v-360h565v-207h-565v-402h661v-206h-987q-217 0 -344 65q-164 84 -240 274q-63 147 -63 353zM350 582q0 -336 182 -439q74 -43 230 -43h112v969h-100q-76 0 -133 -6q-150 -20 -225 -170 q-66 -127 -66 -311z" />
<glyph unicode="&#x153;" horiz-adv-x="1792" d="M150 414q0 215 102 366q119 180 344 181q98 0 195 -60q82 -55 135 -145q53 88 144 146.5t190 58.5q389 0 389 -570v-49h-598q2 -123 53 -199q55 -84 156 -84q139 0 186 129h223q-41 -160 -158 -247q-106 -76 -249 -76q-104 0 -201 59q-96 59 -135 150 q-49 -98 -140.5 -153.5t-197.5 -55.5q-219 0 -338 178q-100 150 -100 371zM365 414q0 -133 53 -236q57 -113 164 -112q104 0 172 108q59 103 59 240q0 133 -55 231q-66 115 -170 115t-168 -113q-55 -98 -55 -233zM1053 528h368q-2 92 -45 160q-47 72 -129 72q-90 0 -143 -72 q-47 -66 -51 -160z" />
<glyph unicode="&#x2dc;" d="M608 1237q31 219 219 219q61 0 207 -41q145 -41 203 -41q49 0 70 21q16 16 32 69h113q-14 -100 -66 -157q-59 -66 -149 -66q-78 0 -215 39q-152 41 -213 41q-70 0 -92 -84h-109z" />
<glyph unicode="&#x2000;" horiz-adv-x="815" />
<glyph unicode="&#x2001;" horiz-adv-x="1630" />
<glyph unicode="&#x2002;" horiz-adv-x="815" />
<glyph unicode="&#x2003;" horiz-adv-x="1630" />
<glyph unicode="&#x2004;" horiz-adv-x="543" />
<glyph unicode="&#x2005;" horiz-adv-x="407" />
<glyph unicode="&#x2006;" horiz-adv-x="271" />
<glyph unicode="&#x2007;" horiz-adv-x="271" />
<glyph unicode="&#x2008;" horiz-adv-x="203" />
<glyph unicode="&#x2009;" horiz-adv-x="326" />
<glyph unicode="&#x200a;" horiz-adv-x="90" />
<glyph unicode="&#x2010;" horiz-adv-x="1021" d="M84 666l18 39q27 4 42.5 4t24.5 -2t13 -4.5t8 -2.5q2 0 35 4.5t99 10.5q66 8 146.5 11t174.5 3h279l37 -59l8 -121q-2 -2 -6 -2t-8.5 -1t-10.5 -1q-25 -4 -22 10h-54q-84 4 -309 -6q-117 -4 -184.5 -11.5t-91.5 -19.5q-10 -4 -15.5 -5t-6.5 -1t0 -3t1 -11h-98l-62 28 q-4 29 -9 67t-9 73z" />
<glyph unicode="&#x2011;" horiz-adv-x="1021" d="M84 666l18 39q27 4 42.5 4t24.5 -2t13 -4.5t8 -2.5q2 0 35 4.5t99 10.5q66 8 146.5 11t174.5 3h279l37 -59l8 -121q-2 -2 -6 -2t-8.5 -1t-10.5 -1q-25 -4 -22 10h-54q-84 4 -309 -6q-117 -4 -184.5 -11.5t-91.5 -19.5q-10 -4 -15.5 -5t-6.5 -1t0 -3t1 -11h-98l-62 28 q-4 29 -9 67t-9 73z" />
<glyph unicode="&#x2012;" horiz-adv-x="1021" d="M84 666l18 39q27 4 42.5 4t24.5 -2t13 -4.5t8 -2.5q2 0 35 4.5t99 10.5q66 8 146.5 11t174.5 3h279l37 -59l8 -121q-2 -2 -6 -2t-8.5 -1t-10.5 -1q-25 -4 -22 10h-54q-84 4 -309 -6q-117 -4 -184.5 -11.5t-91.5 -19.5q-10 -4 -15.5 -5t-6.5 -1t0 -3t1 -11h-98l-62 28 q-4 29 -9 67t-9 73z" />
<glyph unicode="&#x2013;" horiz-adv-x="1160" d="M84 666l21 39q31 4 49 4t28.5 -2t15 -4.5t9.5 -2.5q2 0 40 4.5t115 10.5q76 8 169 11t202 3h323l43 -59l9 -121q-2 -2 -7 -2t-10 -1t-12 -1q-29 -4 -25 10h-63q-97 4 -357 -6q-136 -4 -214 -11.5t-106 -19.5q-11 -4 -17.5 -5t-7.5 -1t0 -3t1 -11h-113l-72 28 q-5 29 -10.5 67t-10.5 73z" />
<glyph unicode="&#x2014;" horiz-adv-x="1409" d="M41 535v170h1352v-170h-1352z" />
<glyph unicode="&#x2018;" horiz-adv-x="393" d="M43 1530q18 10 24.5 20.5t6.5 24.5l37 18q6 -2 24.5 -4t40 -4t41 -5t29.5 -7q55 -25 98 -19l27 -51q-4 -14 -6.5 -28.5t-6.5 -30.5t-6 -27.5t-4 -21.5q-2 -6 -2 -19l-39 -26v-111l-41 -119h-92h-20.5t-18.5 2q-59 6 -59 17q0 6 -1 25.5t7 33.5q2 6 -2 16.5t-8 21.5 t-7.5 21.5t1.5 16.5q2 6 1 23.5t1 21.5q-16 4 -17 92q2 47 -1 74.5t-7 44.5z" />
<glyph unicode="&#x2019;" horiz-adv-x="389" d="M45 1509q18 10 24.5 20.5t6.5 24.5l37 19q6 -2 24.5 -4t40 -4t41 -5.5t29.5 -7.5q55 -25 98 -18l27 -51q-4 -14 -6 -28.5t-7 -31.5q-4 -16 -6 -27.5t-4 -21.5q-2 -6 -2 -18l-39 -27v-110l-41 -119h-92h-20.5t-18.5 2q-59 6 -59 16q0 6 -1 25.5t7 34.5q2 6 -2 16t-8 21.5 t-7.5 21.5t1.5 16q2 6 1 23.5t1 21.5q-16 4 -17 93q2 47 -1 74.5t-7 43.5z" />
<glyph unicode="&#x201c;" horiz-adv-x="716" d="M31 1509q29 16 28 45l37 19q6 -2 23.5 -4t37 -4t39 -5.5t29.5 -7.5q51 -25 94 -18l25 -51q-4 -14 -6 -28.5t-6 -31.5q-4 -16 -6 -27.5t-4 -21.5q-2 -6 -3 -18l-36 -27v-110l-39 -119h-88q-27 0 -37 2q-57 6 -58 16q0 6 -1 25.5t8 34.5q2 6 -1.5 16t-7.5 21.5t-7 21.5 t1 16v45q-14 2 -14 93q2 47 -1 74.5t-7 43.5zM395 1516q29 16 29 45l35 18q8 -2 25.5 -4t37 -4t38 -5t28.5 -7q55 -25 94 -19l27 -51q-4 -14 -6.5 -28.5t-6.5 -30.5t-6 -27.5t-4 -22.5q-2 -6 -2 -18l-37 -27v-110l-39 -119h-88q-27 0 -37 2q-57 6 -57 16q0 6 -1 25.5t7 34.5 q4 12 -8 37.5t-8 38.5q2 6 1 23t1 22q-14 2 -15 92q2 47 -1 74.5t-7 44.5z" />
<glyph unicode="&#x201d;" horiz-adv-x="716" d="M31 1509q29 16 28 45l37 19q6 -2 23.5 -4t37 -4t39 -5.5t29.5 -7.5q51 -25 94 -18l25 -51q-4 -14 -6 -28.5t-6 -31.5q-4 -16 -6 -27.5t-4 -21.5q-2 -6 -3 -18l-36 -27v-110l-39 -119h-88q-27 0 -37 2q-57 6 -58 16q0 6 -1 25.5t8 34.5q2 6 -1.5 16t-7.5 21.5t-7 21.5 t1 16v45q-14 2 -14 93q2 47 -1 74.5t-7 43.5zM395 1516q29 16 29 45l35 18q8 -2 25.5 -4t37 -4t38 -5t28.5 -7q55 -25 94 -19l27 -51q-4 -14 -6.5 -28.5t-6.5 -30.5t-6 -27.5t-4 -22.5q-2 -6 -2 -18l-37 -27v-110l-39 -119h-88q-27 0 -37 2q-57 6 -57 16q0 6 -1 25.5t7 34.5 q4 12 -8 37.5t-8 38.5q2 6 1 23t1 22q-14 2 -15 92q2 47 -1 74.5t-7 44.5z" />
<glyph unicode="&#x2022;" horiz-adv-x="1884" />
<glyph unicode="&#x2026;" d="M244 510v221h221v-221h-221zM915 510v221h218v-221h-218zM1585 510v221h217v-221h-217z" />
<glyph unicode="&#x202f;" horiz-adv-x="326" />
<glyph unicode="&#x2039;" horiz-adv-x="1884" />
<glyph unicode="&#x203a;" horiz-adv-x="1884" />
<glyph unicode="&#x205f;" horiz-adv-x="407" />
<glyph unicode="&#x2122;" horiz-adv-x="1859" d="M78 1255v170h713v-170h-261v-546h-198v546h-254zM897 709v716h182l232 -479l221 479h186v-716h-188v327l-160 -327h-119l-166 340v-340h-188z" />
<glyph unicode="&#x25fc;" horiz-adv-x="1024" d="M0 0v1024h1024v-1024h-1024z" />
</font>
</defs>
</svg>
